<svg xmlns="http://www.w3.org/2000/svg" width="26.388" height="20.1" viewBox="0 0 26.388 20.1">
  <g id="email_3_" data-name="email (3)" transform="translate(0 -61)">
    <g id="Group_171" data-name="Group 171" transform="translate(0 61)">
      <path id="Path_108" data-name="Path 108" d="M24.068,61H2.319A2.323,2.323,0,0,0,0,63.319V78.781A2.323,2.323,0,0,0,2.319,81.1H24.068a2.323,2.323,0,0,0,2.319-2.319V63.319A2.323,2.323,0,0,0,24.068,61Zm-.32,1.546L13.243,73.051,2.647,62.546ZM1.546,78.461V63.632l7.446,7.382Zm1.093,1.093L10.09,72.1,12.7,74.691a.773.773,0,0,0,1.091,0l2.546-2.546,7.411,7.411Zm22.2-1.093L17.431,71.05l7.411-7.411Z" transform="translate(0 -61)" fill="#fff"/>
    </g>
  </g>
</svg>
