<?xml version="1.0" encoding="UTF-8" standalone="no"?>
<svg
   xmlns:dc="http://purl.org/dc/elements/1.1/"
   xmlns:cc="http://creativecommons.org/ns#"
   xmlns:rdf="http://www.w3.org/1999/02/22-rdf-syntax-ns#"
   xmlns:svg="http://www.w3.org/2000/svg"
   xmlns="http://www.w3.org/2000/svg"
   xmlns:sodipodi="http://sodipodi.sourceforge.net/DTD/sodipodi-0.dtd"
   xmlns:inkscape="http://www.inkscape.org/namespaces/inkscape"
   width="69.955"
   height="80.245"
   viewBox="0 0 69.955 80.245"
   version="1.1"
   id="svg12"
   sodipodi:docname="gift-box.svg"
   inkscape:version="1.0.2 (e86c870879, 2021-01-15)">
  <metadata
     id="metadata16">
    <rdf:RDF>
      <cc:Work
         rdf:about="">
        <dc:format>image/svg+xml</dc:format>
        <dc:type
           rdf:resource="http://purl.org/dc/dcmitype/StillImage" />
      </cc:Work>
    </rdf:RDF>
  </metadata>
  <sodipodi:namedview
     pagecolor="#ffffff"
     bordercolor="#666666"
     borderopacity="1"
     objecttolerance="10"
     gridtolerance="10"
     guidetolerance="10"
     inkscape:pageopacity="0"
     inkscape:pageshadow="2"
     inkscape:window-width="1366"
     inkscape:window-height="704"
     id="namedview14"
     showgrid="false"
     inkscape:zoom="6.5923108"
     inkscape:cx="34.977501"
     inkscape:cy="40.122501"
     inkscape:window-x="0"
     inkscape:window-y="0"
     inkscape:window-maximized="1"
     inkscape:current-layer="svg12" />
  <defs
     id="defs7">
    <linearGradient
       id="linear-gradient"
       x1="138.53401"
       x2="72.610911"
       y2="74.931136"
       gradientUnits="userSpaceOnUse"
       gradientTransform="scale(0.93381441,1.0708766)"
       y1="0.018518593">
      <stop
         offset="0"
         stop-color="#e6ca69"
         id="stop2" />
      <stop
         offset="1"
         stop-color="#cca54d"
         id="stop4" />
    </linearGradient>
  </defs>
  <g
     id="gift-box_2_"
     data-name="gift-box (2)"
     transform="matrix(-1,0,0,1,102.78223,0.001)">
    <g
       id="Group_1"
       data-name="Group 1"
       transform="translate(32.828,-0.001)">
      <path
         id="Path_1"
         data-name="Path 1"
         d="M 98.149,27.865 90.283,25 A 9.524,9.524 0 1 0 77.913,10.521 l -5.431,4.8 -1.074,-7.2 A 9.527,9.527 0 1 0 52.624,11.3 L 45.208,8.6 a 7.051,7.051 0 0 0 -9.027,4.209 l -3.211,8.82 a 2.347,2.347 0 0 0 1.4,3.009 L 71.061,37.991 H 35.636 a 2.348,2.348 0 0 0 -2.347,2.347 V 73.2 a 7.05,7.05 0 0 0 7.042,7.042 H 87.279 A 7.05,7.05 0 0 0 94.322,73.2 V 46.457 l 1.816,0.661 a 2.348,2.348 0 0 0 3.009,-1.4 l 3.212,-8.823 a 7.051,7.051 0 0 0 -4.21,-9.03 z M 56.762,75.55 H 40.33 A 2.35,2.35 0 0 1 37.983,73.2 V 42.686 h 18.78 z m 9.39,0 H 61.457 V 42.686 h 4.695 z M 81.023,14.038 a 4.83,4.83 0 1 1 1.548,8.162 l -7.633,-2.778 z m -21.885,-8.4 a 4.829,4.829 0 0 1 7.628,3.182 l 1.2,8.063 -7.63,-2.783 A 4.852,4.852 0 0 1 59.137,5.636 Z m 1.106,23.422 -22.059,-8.032 2.409,-6.617 a 2.351,2.351 0 0 1 3.009,-1.4 l 19.853,7.226 z m 8.824,3.212 -4.412,-1.606 3.212,-8.823 4.412,1.606 z M 89.627,73.2 A 2.35,2.35 0 0 1 87.28,75.547 H 70.847 V 42.686 H 83.96 l 5.667,2.063 z m 8.319,-37.917 -2.409,6.617 -22.058,-8.026 3.212,-8.823 19.853,7.226 a 2.35,2.35 0 0 1 1.402,3.009 z"
         transform="translate(-32.828,0.001)"
         fill="url(#linear-gradient)"
         style="fill:url(#linear-gradient)" />
    </g>
  </g>
</svg>
