<svg xmlns="http://www.w3.org/2000/svg" width="20.704" height="37.169" viewBox="0 0 20.704 37.169">
  <g id="Group_107" data-name="Group 107" transform="translate(-188.349 -2574.466)">
    <g id="down-arrow" transform="translate(325.024 2574.467) rotate(90)">
      <path id="Path_2" data-name="Path 2" d="M35.8,117.519l-17.2,17.205L1.39,117.519a.808.808,0,0,0-1.143,1.142l17.776,17.776a.808.808,0,0,0,1.143,0l17.776-17.776a.808.808,0,1,0-1.123-1.162l-.02.02Z" transform="translate(-0.02 0)" fill="#6e6e6e"/>
      <path id="Path_3" data-name="Path 3" d="M18.574,136.675a.808.808,0,0,1-.572-.236L.226,118.664a.808.808,0,0,1,1.142-1.142l17.205,17.2,17.2-17.205a.808.808,0,1,1,1.162,1.123l-.02.02L19.145,136.438A.808.808,0,0,1,18.574,136.675Z" transform="translate(0 -0.001)" fill="#6e6e6e"/>
    </g>
    <g id="down-arrow-2" data-name="down-arrow" transform="translate(326.326 2579.635) rotate(90)">
      <path id="Path_2-2" data-name="Path 2" d="M25.848,117.45,13.429,129.87,1.009,117.45a.583.583,0,0,0-.825.825l12.832,12.832a.583.583,0,0,0,.825,0l12.832-12.832a.583.583,0,1,0-.81-.839l-.014.014Z" transform="translate(-0.02 0)" fill="#6e6e6e"/>
      <path id="Path_3-2" data-name="Path 3" d="M13.408,131.279a.583.583,0,0,1-.413-.17L.163,118.277a.583.583,0,0,1,.825-.825l12.42,12.419,12.419-12.42a.583.583,0,1,1,.839.81l-.014.014L13.82,131.108A.584.584,0,0,1,13.408,131.279Z" transform="translate(0 -0.001)" fill="#6e6e6e"/>
    </g>
  </g>
</svg>
