<svg xmlns="http://www.w3.org/2000/svg" xmlns:xlink="http://www.w3.org/1999/xlink" width="140.804" height="156.031" viewBox="0 0 140.804 156.031">
  <defs>
    <linearGradient id="linear-gradient" y1="0.5" x2="1" y2="0.5" gradientUnits="objectBoundingBox">
      <stop offset="0" stop-color="#b78a38"/>
      <stop offset="0.51" stop-color="#fce984"/>
      <stop offset="1" stop-color="#b78a38"/>
    </linearGradient>
    <linearGradient id="linear-gradient-2" x1="0" y1="0.5" x2="1" y2="0.5" xlink:href="#linear-gradient"/>
  </defs>
  <g id="logo" transform="translate(0.004 0)">
    <g id="Layer_1" data-name="Layer 1" transform="translate(-0.004 0)">
      <path id="Path_121" data-name="Path 121" d="M14.572,196.187a7.667,7.667,0,0,1-6.5,3.1A7.566,7.566,0,0,1,1.9,196.567,8.383,8.383,0,0,1,0,191.035a7.864,7.864,0,0,1,8.041-8.041,7.445,7.445,0,0,1,6.533,3.244l-1.172.944a6.3,6.3,0,0,0-5.335-2.674,6.438,6.438,0,0,0-3.251.868,6.128,6.128,0,0,0-2.4,2.4,6.882,6.882,0,0,0-.849,3.4A6.413,6.413,0,0,0,8.16,197.8a6.558,6.558,0,0,0,5.24-2.535Z" transform="translate(0.004 -67.036)" fill="#b78a38"/>
      <path id="Path_122" data-name="Path 122" d="M38.024,201.287H36.611v-1.958a5.43,5.43,0,0,1-4.436,2.275,5.259,5.259,0,0,1-4.03-1.8,6.089,6.089,0,0,1-1.6-4.277,5.994,5.994,0,0,1,1.654-4.245,5.329,5.329,0,0,1,4.03-1.762,5.069,5.069,0,0,1,4.379,2.408v-2.1h1.413Zm-1.318-5.7a4.714,4.714,0,0,0-1.267-3.32,4.252,4.252,0,0,0-6.881.963,4.816,4.816,0,0,0,0,4.638,4.436,4.436,0,0,0,1.6,1.717,4.03,4.03,0,0,0,2.154.634,4.328,4.328,0,0,0,2.205-.634,4.176,4.176,0,0,0,1.6-1.654,4.885,4.885,0,0,0,.589-2.326Z" transform="translate(-9.723 -69.43)" fill="#b78a38"/>
      <path id="Path_123" data-name="Path 123" d="M60.414,198.9H59.008V196.94a5.443,5.443,0,0,1-4.436,2.275,5.259,5.259,0,0,1-4.03-1.8,6.089,6.089,0,0,1-1.6-4.277,5.994,5.994,0,0,1,1.654-4.245,5.329,5.329,0,0,1,4.03-1.762,5.069,5.069,0,0,1,4.385,2.408V183h1.407ZM59.1,193.2a4.74,4.74,0,0,0-1.248-3.3,4.081,4.081,0,0,0-3.118-1.343,4.03,4.03,0,0,0-3.8,2.306,4.816,4.816,0,0,0,0,4.638,4.436,4.436,0,0,0,1.6,1.717,4.03,4.03,0,0,0,2.154.634,4.328,4.328,0,0,0,2.205-.634,4.176,4.176,0,0,0,1.6-1.654,4.885,4.885,0,0,0,.627-2.345Z" transform="translate(-17.925 -67.041)" fill="#b78a38"/>
      <path id="Path_124" data-name="Path 124" d="M82.646,195.633h-9.9a4.9,4.9,0,0,0,1.153,3.213,3.8,3.8,0,0,0,2.991,1.35,4.265,4.265,0,0,0,2.984-1.115,6.844,6.844,0,0,0,1.2-1.635l1.2.634a5.886,5.886,0,0,1-3.092,3.061,5.7,5.7,0,0,1-2.173.393,5.424,5.424,0,0,1-4.106-1.711,6,6,0,0,1-1.628-4.3,6.336,6.336,0,0,1,1.267-3.9,5.2,5.2,0,0,1,4.366-2.173,5.348,5.348,0,0,1,4.518,2.249A6.489,6.489,0,0,1,82.646,195.633Zm-1.552-1.267a4.227,4.227,0,0,0-2.256-3.01,4.3,4.3,0,0,0-1.9-.431,3.954,3.954,0,0,0-2.788,1.084,4.974,4.974,0,0,0-1.267,2.357Z" transform="translate(-26.109 -69.403)" fill="#b78a38"/>
      <path id="Path_125" data-name="Path 125" d="M104.074,201.287h-1.407v-1.958a5.437,5.437,0,0,1-4.436,2.275,5.234,5.234,0,0,1-4.024-1.8,6.1,6.1,0,0,1-1.61-4.277,5.994,5.994,0,0,1,1.654-4.245,5.342,5.342,0,0,1,4.036-1.762,5.069,5.069,0,0,1,4.379,2.408v-2.1h1.407Zm-1.318-5.7a4.74,4.74,0,0,0-1.236-3.32,4.258,4.258,0,0,0-6.888.963,4.816,4.816,0,0,0,0,4.638,4.436,4.436,0,0,0,1.6,1.717,4.055,4.055,0,0,0,2.161.634,4.283,4.283,0,0,0,2.2-.634,4.15,4.15,0,0,0,1.6-1.654,4.879,4.879,0,0,0,.558-2.325Z" transform="translate(-33.92 -69.43)" fill="#b78a38"/>
      <path id="Path_126" data-name="Path 126" d="M125.091,195.614a10.577,10.577,0,0,1-.355,3.08,4.182,4.182,0,0,1-1.768,2.376,4.9,4.9,0,0,1-2.687.691,4.245,4.245,0,0,1-4.29-2.592,9.435,9.435,0,0,1-.539-3.663V190h1.438v5.354a11.552,11.552,0,0,0,.2,2.706,2.965,2.965,0,0,0,1.21,1.7,3.726,3.726,0,0,0,3.91,0,2.959,2.959,0,0,0,1.21-1.622,11.73,11.73,0,0,0,.209-2.82V190h1.457Z" transform="translate(-42.289 -69.606)" fill="#b78a38"/>
      <path id="Path_127" data-name="Path 127" d="M13.322,224.051a4.968,4.968,0,0,1-.716,2.585,4.6,4.6,0,0,1-1.952,1.812,7.23,7.23,0,0,1-3.244.6H2.62V211.935H5.307a14.136,14.136,0,0,1,3.422.3,4.613,4.613,0,0,1,2.408,1.476,4.017,4.017,0,0,1-.817,5.9A4.649,4.649,0,0,1,13.322,224.051Zm-4.436-7.274q0-1.749-2.2-1.749H5.877v3.605h.71c1.546,0,2.326-.621,2.326-1.857Zm1.2,7.167q0-2.383-3.561-2.389H5.877v4.4h.786a6.654,6.654,0,0,0,2.262-.285,1.692,1.692,0,0,0,1.185-1.724Z" transform="translate(-0.957 -77.639)" fill="#b78a38"/>
      <path id="Path_128" data-name="Path 128" d="M36.169,225.119a6.679,6.679,0,0,1-.887,3.346,6.336,6.336,0,0,1-2.421,2.44,6.755,6.755,0,0,1-3.39.874,6.337,6.337,0,0,1-4.664-1.9,6.736,6.736,0,0,1,.266-9.651,6.336,6.336,0,0,1,4.385-1.717,6.78,6.78,0,0,1,3.365.887,6.387,6.387,0,0,1,2.459,2.433,6.552,6.552,0,0,1,.887,3.289Zm-3.219,0a3.745,3.745,0,0,0-.944-2.611,3.534,3.534,0,0,0-5.038.032,3.719,3.719,0,0,0-.893,2.617,3.764,3.764,0,0,0,.919,2.611,3.169,3.169,0,0,0,2.535,1.077,3.206,3.206,0,0,0,2.535-1.077,3.758,3.758,0,0,0,.887-2.611Z" transform="translate(-8.387 -80.05)" fill="#b78a38"/>
      <path id="Path_129" data-name="Path 129" d="M59.007,224.342a13.158,13.158,0,0,1-.526,4.537,5,5,0,0,1-5.069,3.08q-4.062,0-5.177-3.523a15.892,15.892,0,0,1-.374-4.188V219h3.251v6.089a12.251,12.251,0,0,0,.1,1.9,2.427,2.427,0,0,0,.925,1.616,2.205,2.205,0,0,0,1.318.38,2.1,2.1,0,0,0,2.154-1.483,8.535,8.535,0,0,0,.2-2.338V219h3.168Z" transform="translate(-17.526 -80.23)" fill="#b78a38"/>
      <path id="Path_130" data-name="Path 130" d="M75.192,219.028h-1.9v9.91H70.123v-9.91h-1.6V216.3h1.628V211.64h3.168V216.3h1.9Z" transform="translate(-25.099 -77.534)" fill="#b78a38"/>
      <path id="Path_131" data-name="Path 131" d="M84.576,212.812A1.958,1.958,0,0,1,84,214.269a1.9,1.9,0,0,1-1.419.6,1.958,1.958,0,0,1-1.451-.634,2.053,2.053,0,0,1-.589-1.483A2.015,2.015,0,0,1,84,211.367,1.99,1.99,0,0,1,84.576,212.812ZM84.158,228.6H80.99V215.98h3.168Z" transform="translate(-29.503 -77.21)" fill="#b78a38"/>
      <path id="Path_132" data-name="Path 132" d="M102.936,236.066H99.768V230.1a5.57,5.57,0,0,1-8.237-.361,6.881,6.881,0,0,1-1.692-4.6,7.014,7.014,0,0,1,1.584-4.638,5.582,5.582,0,0,1,8.339-.317v-1.381h3.168Zm-3.023-10.975a3.751,3.751,0,0,0-.957-2.636,3.213,3.213,0,0,0-2.535-1.052,3.168,3.168,0,0,0-2.535,1.09,4.155,4.155,0,0,0,.013,5.228,3.168,3.168,0,0,0,2.535,1.128,3.232,3.232,0,0,0,2.535-1.1,3.922,3.922,0,0,0,.944-2.655Z" transform="translate(-32.908 -80.035)" fill="#b78a38"/>
      <path id="Path_133" data-name="Path 133" d="M126.647,224.342a13.158,13.158,0,0,1-.526,4.537,5,5,0,0,1-5.069,3.08q-4.062,0-5.177-3.523a15.892,15.892,0,0,1-.374-4.188V219h3.225v6.089a12.247,12.247,0,0,0,.1,1.9,2.427,2.427,0,0,0,.925,1.616,2.205,2.205,0,0,0,1.318.38,2.1,2.1,0,0,0,2.154-1.483,8.536,8.536,0,0,0,.2-2.338V219h3.168Z" transform="translate(-42.305 -80.23)" fill="#b78a38"/>
      <path id="Path_134" data-name="Path 134" d="M150.467,225.458v.634h-10.2a3.308,3.308,0,0,0,1.21,2.161,3.764,3.764,0,0,0,2.414.773,4.246,4.246,0,0,0,3.054-1.236l2.668,1.267a6.539,6.539,0,0,1-5.7,2.775,6.653,6.653,0,0,1-4.816-1.838,6.337,6.337,0,0,1-1.9-4.746,6.641,6.641,0,0,1,1.844-4.79,6.2,6.2,0,0,1,4.7-1.9,6.508,6.508,0,0,1,4.86,1.9,6.748,6.748,0,0,1,1.863,5Zm-3.206-1.9a3.092,3.092,0,0,0-1.267-1.73,3.681,3.681,0,0,0-2.1-.634,3.8,3.8,0,0,0-2.319.735,4.081,4.081,0,0,0-1.16,1.622Z" transform="translate(-50.258 -80.066)" fill="#b78a38"/>
      <path id="Path_135" data-name="Path 135" d="M176.091,149.96c-2.053-6.229-5.792-10.918-11.887-13.376a3.321,3.321,0,0,1-.7-.564c1.337-.855,2.6-1.559,3.751-2.414a18.046,18.046,0,0,0,7.034-10.519,25.145,25.145,0,0,0-13.117-28.654A38.877,38.877,0,0,0,144.1,90.9c-13.94-.051-27.836,0-41.758,0H100.49v26.227h16.678V107.112a3.358,3.358,0,0,1,.748-.241c9.106,0,18.211-.114,27.317.076a12.728,12.728,0,0,1,10.645,5.386c4.131,5.842,1.939,12.908-4.74,15.106-1.781.589-3.663.843-5.8,1.324,0,3.6-.044,7.2,0,10.8.063,4.379-.988,3.986,4.1,5.361a16.62,16.62,0,0,1,8.719,5.31c4.062,4.847,3.232,11.672-2.142,14.815a26.7,26.7,0,0,1-8.237,2.807,58.741,58.741,0,0,1-8.237.57V184.57c7.135.209,14.061-.089,20.771-2.313C174.317,177.612,180.805,164.306,176.091,149.96Z" transform="translate(-36.812 -33.291)" fill="url(#linear-gradient)"/>
      <path id="Path_136" data-name="Path 136" d="M100.976,81.373l-.773,1.533A38.222,38.222,0,0,1,86.6,97.95a36.321,36.321,0,0,1-19.7,5.538,36.118,36.118,0,0,1-26.385-10.88A36.615,36.615,0,0,1,29.678,66.267a36.752,36.752,0,0,1,10.772-26.4A36.239,36.239,0,0,1,60.327,29.5L48.846,43.278l7.781-3.054,2.636,7.655L66.74,28.951h.792L74.977,47.1l2.1-6.279,9.5,3.669L73.894,29.566A34.553,34.553,0,0,1,86.6,34.591a37.721,37.721,0,0,1,13.6,14.954l.779,1.514h14.422l-1.6-3.859A50.977,50.977,0,0,0,95.527,24.472,50.283,50.283,0,0,0,90.984,21.7c5.3-4.074,5.88-19.574.843-21.449-4.835-1.8-16.545,6.47-20.277,9.251a4.081,4.081,0,0,0-3.32-1.711h-.583a5.209,5.209,0,0,0-4.1,1.99c-3.27-2.452-15.658-11.406-20.67-9.5s-4.486,16.7.513,21.158A51.51,51.51,0,0,0,31.2,30.561,48.852,48.852,0,0,0,16.39,66.267,49.217,49.217,0,0,0,31.2,102.081,48.592,48.592,0,0,0,66.9,116.89a49.254,49.254,0,0,0,28.622-8.922,50.4,50.4,0,0,0,18.287-22.729l1.6-3.865ZM71.144,15.689l.241.253L70.96,15.9A2.052,2.052,0,0,0,71.144,15.689Z" transform="translate(-6.002 0)" fill="url(#linear-gradient-2)"/>
    </g>
  </g>
</svg>
