<svg xmlns="http://www.w3.org/2000/svg" xmlns:xlink="http://www.w3.org/1999/xlink" width="24.152" height="26.764" viewBox="0 0 24.152 26.764">
  <defs>
    <linearGradient id="linear-gradient" y1="0.5" x2="1" y2="0.5" gradientUnits="objectBoundingBox">
      <stop offset="0" stop-color="#b78a38"/>
      <stop offset="0.51" stop-color="#fce984"/>
      <stop offset="1" stop-color="#b78a38"/>
    </linearGradient>
    <linearGradient id="linear-gradient-2" x1="0" y1="0.5" x2="1" y2="0.5" xlink:href="#linear-gradient"/>
  </defs>
  <g id="mini-logo" transform="translate(0.004 0)">
    <g id="Layer_1" data-name="Layer 1" transform="translate(-0.004 0)">
      <path id="Path_121" data-name="Path 121" d="M2.5,185.249a1.315,1.315,0,0,1-1.115.531,1.3,1.3,0,0,1-1.059-.466A1.438,1.438,0,0,1,0,184.366a1.349,1.349,0,0,1,1.379-1.379,1.277,1.277,0,0,1,1.121.557l-.2.162a1.08,1.08,0,0,0-.915-.459,1.1,1.1,0,0,0-.558.149,1.051,1.051,0,0,0-.411.411,1.18,1.18,0,0,0-.146.584,1.1,1.1,0,0,0,1.13,1.137,1.125,1.125,0,0,0,.9-.435Z" transform="translate(0.004 -163.096)" fill="#b78a38"/>
      <path id="Path_122" data-name="Path 122" d="M28.515,191.538h-.242V191.2a.931.931,0,0,1-.761.39.9.9,0,0,1-.691-.309,1.045,1.045,0,0,1-.274-.734,1.028,1.028,0,0,1,.284-.728.914.914,0,0,1,.691-.3.87.87,0,0,1,.751.413v-.361h.242Zm-.226-.978a.809.809,0,0,0-.217-.57.729.729,0,0,0-1.18.165.826.826,0,0,0,0,.8.761.761,0,0,0,.275.295.691.691,0,0,0,.37.109.742.742,0,0,0,.378-.109.716.716,0,0,0,.274-.284.838.838,0,0,0,.1-.4Z" transform="translate(-23.661 -168.92)" fill="#b78a38"/>
      <path id="Path_123" data-name="Path 123" d="M50.906,185.727h-.241v-.336a.934.934,0,0,1-.761.39.9.9,0,0,1-.691-.309,1.045,1.045,0,0,1-.275-.734,1.028,1.028,0,0,1,.284-.728.914.914,0,0,1,.691-.3.87.87,0,0,1,.752.413V183h.241Zm-.226-.978a.813.813,0,0,0-.214-.566.7.7,0,0,0-.535-.23.691.691,0,0,0-.652.4.826.826,0,0,0,0,.8.761.761,0,0,0,.275.295.691.691,0,0,0,.37.109.742.742,0,0,0,.378-.109.716.716,0,0,0,.274-.284.838.838,0,0,0,.108-.4Z" transform="translate(-43.617 -163.109)" fill="#b78a38"/>
      <path id="Path_124" data-name="Path 124" d="M73.226,190.508h-1.7a.84.84,0,0,0,.2.551.652.652,0,0,0,.513.232.731.731,0,0,0,.512-.191,1.174,1.174,0,0,0,.207-.28l.205.109a1.01,1.01,0,0,1-.53.525.978.978,0,0,1-.373.067.93.93,0,0,1-.7-.293,1.029,1.029,0,0,1-.279-.738,1.087,1.087,0,0,1,.217-.668.891.891,0,0,1,.749-.373.917.917,0,0,1,.775.386A1.113,1.113,0,0,1,73.226,190.508Zm-.266-.217a.725.725,0,0,0-.387-.516.738.738,0,0,0-.326-.074.678.678,0,0,0-.478.186.853.853,0,0,0-.217.4Z" transform="translate(-63.528 -168.855)" fill="#b78a38"/>
      <path id="Path_125" data-name="Path 125" d="M94.566,191.538h-.241V191.2a.933.933,0,0,1-.761.39.9.9,0,0,1-.69-.309,1.046,1.046,0,0,1-.276-.734,1.028,1.028,0,0,1,.284-.728.916.916,0,0,1,.692-.3.87.87,0,0,1,.751.413v-.361h.241Zm-.226-.978a.813.813,0,0,0-.212-.57.73.73,0,0,0-1.181.165.826.826,0,0,0,0,.8.761.761,0,0,0,.275.295.7.7,0,0,0,.371.109.735.735,0,0,0,.377-.109.712.712,0,0,0,.275-.284.837.837,0,0,0,.1-.4Z" transform="translate(-82.532 -168.92)" fill="#b78a38"/>
      <path id="Path_126" data-name="Path 126" d="M117.1,190.963a1.814,1.814,0,0,1-.061.528.717.717,0,0,1-.3.408.841.841,0,0,1-.461.118.728.728,0,0,1-.736-.445,1.618,1.618,0,0,1-.092-.628V190h.247v.918a1.982,1.982,0,0,0,.035.464.509.509,0,0,0,.208.292.639.639,0,0,0,.671,0,.508.508,0,0,0,.208-.278,2.012,2.012,0,0,0,.036-.484V190h.25Z" transform="translate(-102.892 -169.348)" fill="#b78a38"/>
      <path id="Path_127" data-name="Path 127" d="M4.456,214.007a.852.852,0,0,1-.123.443.789.789,0,0,1-.335.311,1.24,1.24,0,0,1-.557.1H2.62v-2.935h.461a2.426,2.426,0,0,1,.587.052.791.791,0,0,1,.413.253.689.689,0,0,1-.14,1.012A.8.8,0,0,1,4.456,214.007Zm-.761-1.248q0-.3-.377-.3H3.179v.618H3.3c.265,0,.4-.107.4-.318Zm.205,1.229q0-.409-.611-.41H3.179v.754h.135a1.141,1.141,0,0,0,.388-.049.29.29,0,0,0,.2-.3Z" transform="translate(-2.335 -188.893)" fill="#b78a38"/>
      <path id="Path_128" data-name="Path 128" d="M25.177,219.643a1.146,1.146,0,0,1-.152.574,1.087,1.087,0,0,1-.415.418,1.159,1.159,0,0,1-.582.15,1.087,1.087,0,0,1-.8-.326,1.155,1.155,0,0,1,.046-1.655,1.087,1.087,0,0,1,.752-.295,1.163,1.163,0,0,1,.577.152,1.1,1.1,0,0,1,.422.417A1.124,1.124,0,0,1,25.177,219.643Zm-.552,0a.642.642,0,0,0-.162-.448.606.606,0,0,0-.864.005.638.638,0,0,0-.153.449.646.646,0,0,0,.158.448.543.543,0,0,0,.435.185.55.55,0,0,0,.435-.185.645.645,0,0,0,.152-.448Z" transform="translate(-20.411 -194.759)" fill="#b78a38"/>
      <path id="Path_129" data-name="Path 129" d="M49.761,219.916a2.257,2.257,0,0,1-.09.778.857.857,0,0,1-.87.528.833.833,0,0,1-.888-.6,2.726,2.726,0,0,1-.064-.718V219h.558v1.045a2.1,2.1,0,0,0,.017.326.416.416,0,0,0,.159.277.378.378,0,0,0,.226.065.361.361,0,0,0,.37-.254,1.464,1.464,0,0,0,.034-.4V219h.543Z" transform="translate(-42.645 -195.196)" fill="#b78a38"/>
      <path id="Path_130" data-name="Path 130" d="M69.665,212.907h-.326v1.7h-.543v-1.7H68.52v-.467H68.8v-.8h.543v.8h.326Z" transform="translate(-61.072 -188.636)" fill="#b78a38"/>
      <path id="Path_131" data-name="Path 131" d="M81.232,211.109a.336.336,0,0,1-.1.25.326.326,0,0,1-.243.1.336.336,0,0,1-.249-.109.352.352,0,0,1-.1-.254.346.346,0,0,1,.593-.238A.341.341,0,0,1,81.232,211.109Zm-.072,2.708h-.543v-2.164h.543Z" transform="translate(-71.785 -187.849)" fill="#b78a38"/>
      <path id="Path_132" data-name="Path 132" d="M92.083,221.487h-.543v-1.023a.955.955,0,0,1-1.413-.062,1.18,1.18,0,0,1-.29-.789,1.2,1.2,0,0,1,.272-.8.958.958,0,0,1,1.43-.054v-.237h.543Zm-.518-1.883a.644.644,0,0,0-.164-.452.551.551,0,0,0-.435-.18.544.544,0,0,0-.435.187.713.713,0,0,0,0,.9.543.543,0,0,0,.435.193.554.554,0,0,0,.435-.189A.673.673,0,0,0,91.564,219.6Z" transform="translate(-80.071 -194.723)" fill="#b78a38"/>
      <path id="Path_133" data-name="Path 133" d="M117.4,219.916a2.257,2.257,0,0,1-.09.778.858.858,0,0,1-.87.528.833.833,0,0,1-.888-.6,2.726,2.726,0,0,1-.064-.718V219h.553v1.045a2.1,2.1,0,0,0,.017.326.416.416,0,0,0,.159.277.378.378,0,0,0,.226.065.361.361,0,0,0,.37-.254,1.464,1.464,0,0,0,.034-.4V219h.543Z" transform="translate(-102.933 -195.196)" fill="#b78a38"/>
      <path id="Path_134" data-name="Path 134" d="M139.471,219.736v.109h-1.749a.567.567,0,0,0,.208.371.646.646,0,0,0,.414.133.728.728,0,0,0,.524-.212l.458.217a1.122,1.122,0,0,1-.978.476,1.141,1.141,0,0,1-.826-.315,1.087,1.087,0,0,1-.326-.814,1.139,1.139,0,0,1,.316-.822,1.064,1.064,0,0,1,.806-.326,1.116,1.116,0,0,1,.834.326A1.158,1.158,0,0,1,139.471,219.736Zm-.55-.326a.53.53,0,0,0-.217-.3.632.632,0,0,0-.361-.109.652.652,0,0,0-.4.126.7.7,0,0,0-.2.278Z" transform="translate(-122.282 -194.797)" fill="#b78a38"/>
      <path id="Path_135" data-name="Path 135" d="M113.458,101.01a3.491,3.491,0,0,0-2.039-2.295.57.57,0,0,1-.12-.1c.229-.147.446-.267.643-.414a3.1,3.1,0,0,0,1.206-1.8,4.313,4.313,0,0,0-2.25-4.915,6.669,6.669,0,0,0-2.928-.607c-2.391-.009-4.775,0-7.163,0h-.318v4.5h2.861V93.66a.576.576,0,0,1,.128-.041c1.562,0,3.124-.02,4.686.013a2.183,2.183,0,0,1,1.826.924,1.623,1.623,0,0,1-.813,2.591c-.305.1-.628.145-1,.227,0,.617-.008,1.236,0,1.853.011.751-.17.684.7.92a2.851,2.851,0,0,1,1.5.911,1.645,1.645,0,0,1-.367,2.541,4.58,4.58,0,0,1-1.413.482,10.075,10.075,0,0,1-1.413.1v2.768a10.209,10.209,0,0,0,3.563-.4A4.183,4.183,0,0,0,113.458,101.01Z" transform="translate(-89.567 -80.997)" fill="url(#linear-gradient)"/>
      <path id="Path_136" data-name="Path 136" d="M30.9,13.958l-.133.263a6.556,6.556,0,0,1-2.334,2.58,6.386,6.386,0,0,1-9.764-5.435,6.3,6.3,0,0,1,1.848-4.529,6.216,6.216,0,0,1,3.41-1.778l-1.97,2.364L23.292,6.9l.452,1.313,1.283-3.247h.136L26.44,8.079,26.8,7l1.63.629-2.176-2.56a5.927,5.927,0,0,1,2.18.862A6.47,6.47,0,0,1,30.768,8.5l.134.26h2.474L33.1,8.1a8.744,8.744,0,0,0-3.136-3.9,8.625,8.625,0,0,0-.779-.475c.91-.7,1.009-3.358.145-3.679-.829-.309-2.838,1.11-3.478,1.587a.7.7,0,0,0-.57-.293h-.1a.893.893,0,0,0-.7.341c-.561-.421-2.686-1.956-3.546-1.63s-.77,2.865.088,3.629A8.836,8.836,0,0,0,18.93,5.242a8.38,8.38,0,0,0-2.54,6.125,8.442,8.442,0,0,0,2.54,6.143,8.335,8.335,0,0,0,6.125,2.54,8.449,8.449,0,0,0,4.91-1.53,8.644,8.644,0,0,0,3.137-3.9l.275-.663ZM25.782,2.691l.041.043-.073-.007A.352.352,0,0,0,25.782,2.691Z" transform="translate(-14.608 0)" fill="url(#linear-gradient-2)"/>
    </g>
  </g>
</svg>
