<svg xmlns="http://www.w3.org/2000/svg" width="24.459" height="24.459" viewBox="0 0 24.459 24.459">
  <g id="phone_2_" data-name="phone (2)" transform="translate(0)">
    <path id="Path_109" data-name="Path 109" d="M17.579,24.459a6.815,6.815,0,0,1-2.338-.418,24.93,24.93,0,0,1-9.053-5.77A24.929,24.929,0,0,1,.418,9.218,6.765,6.765,0,0,1,.073,5.893,6.938,6.938,0,0,1,3.639.815,6.811,6.811,0,0,1,6.9,0a.764.764,0,0,1,.747.6l1.2,5.6a.765.765,0,0,1-.207.7L6.59,8.953a20.119,20.119,0,0,0,8.917,8.917l2.05-2.05a.765.765,0,0,1,.7-.207l5.6,1.2a.764.764,0,0,1,.6.747,6.811,6.811,0,0,1-.815,3.261,6.938,6.938,0,0,1-5.078,3.566,6.8,6.8,0,0,1-.987.073ZM6.289,1.562A5.356,5.356,0,0,0,1.855,8.7,23.183,23.183,0,0,0,15.763,22.6,5.356,5.356,0,0,0,22.9,18.171L18.343,17.2,16.2,19.336a.764.764,0,0,1-.865.151A21.643,21.643,0,0,1,4.973,9.123a.764.764,0,0,1,.151-.865L7.265,6.117Z" transform="translate(0)" fill="#fff"/>
  </g>
</svg>
