<svg xmlns="http://www.w3.org/2000/svg" width="21.114" height="30.029" viewBox="0 0 21.114 30.029">
  <g id="placeholder_1_" data-name="placeholder (1)" transform="translate(-76)">
    <g id="Group_173" data-name="Group 173" transform="translate(76)">
      <g id="Group_172" data-name="Group 172">
        <path id="Path_110" data-name="Path 110" d="M86.557,0a10.559,10.559,0,0,0-8.981,16.108l8.38,13.5a.88.88,0,0,0,.747.416h.007a.88.88,0,0,0,.748-.428l8.167-13.635A10.559,10.559,0,0,0,86.557,0Zm7.558,15.062-7.425,12.4L79.071,15.181a8.8,8.8,0,1,1,15.044-.119Z" transform="translate(-76)" fill="#fff"/>
      </g>
    </g>
    <g id="Group_175" data-name="Group 175" transform="translate(81.279 5.279)">
      <g id="Group_174" data-name="Group 174">
        <path id="Path_111" data-name="Path 111" d="M171.278,90a5.279,5.279,0,1,0,5.279,5.279A5.285,5.285,0,0,0,171.278,90Zm0,8.809a3.531,3.531,0,1,1,3.525-3.531A3.533,3.533,0,0,1,171.278,98.809Z" transform="translate(-166 -90)" fill="#fff"/>
      </g>
    </g>
  </g>
</svg>
