<svg id="qr" xmlns="http://www.w3.org/2000/svg" width="263.5" height="263.5" viewBox="0 0 263.5 263.5">
  <g id="OBJECTS" transform="translate(0 0)">
    <rect id="Rectangle_53" data-name="Rectangle 53" width="10.975" height="10.975" transform="translate(0 175.66) rotate(-90)" fill="#6e6e6e"/>
    <rect id="Rectangle_54" data-name="Rectangle 54" width="10.975" height="10.975" transform="translate(0 164.685) rotate(-90)" fill="#6e6e6e"/>
    <rect id="Rectangle_55" data-name="Rectangle 55" width="10.975" height="10.975" transform="translate(0 153.71) rotate(-90)" fill="#6e6e6e"/>
    <rect id="Rectangle_56" data-name="Rectangle 56" width="10.975" height="10.975" transform="translate(0 120.765) rotate(-90)" fill="#6e6e6e"/>
    <rect id="Rectangle_57" data-name="Rectangle 57" width="10.975" height="10.975" transform="translate(0 109.79) rotate(-90)" fill="#6e6e6e"/>
    <rect id="Rectangle_58" data-name="Rectangle 58" width="10.975" height="10.975" transform="translate(0 98.815) rotate(-90)" fill="#6e6e6e"/>
    <rect id="Rectangle_59" data-name="Rectangle 59" width="10.975" height="10.975" transform="translate(10.975 164.685) rotate(-90)" fill="#6e6e6e"/>
    <rect id="Rectangle_60" data-name="Rectangle 60" width="10.975" height="10.975" transform="translate(10.996 153.71) rotate(-90)" fill="#6e6e6e"/>
    <rect id="Rectangle_61" data-name="Rectangle 61" width="10.975" height="10.975" transform="translate(10.975 142.735) rotate(-90)" fill="#6e6e6e"/>
    <rect id="Rectangle_62" data-name="Rectangle 62" width="10.975" height="10.975" transform="translate(10.975 120.765) rotate(-90)" fill="#6e6e6e"/>
    <rect id="Rectangle_63" data-name="Rectangle 63" width="10.975" height="10.975" transform="translate(10.975 109.79) rotate(-90)" fill="#6e6e6e"/>
    <rect id="Rectangle_64" data-name="Rectangle 64" width="10.975" height="10.975" transform="translate(21.971 164.685) rotate(-90)" fill="#6e6e6e"/>
    <rect id="Rectangle_65" data-name="Rectangle 65" width="10.975" height="10.975" transform="translate(21.971 153.71) rotate(-90)" fill="#6e6e6e"/>
    <rect id="Rectangle_66" data-name="Rectangle 66" width="10.975" height="10.975" transform="translate(21.95 131.76) rotate(-90)" fill="#6e6e6e"/>
    <rect id="Rectangle_67" data-name="Rectangle 67" width="10.975" height="10.975" transform="translate(21.95 120.786) rotate(-90)" fill="#6e6e6e"/>
    <rect id="Rectangle_68" data-name="Rectangle 68" width="10.975" height="10.975" transform="translate(21.971 109.79) rotate(-90)" fill="#6e6e6e"/>
    <rect id="Rectangle_69" data-name="Rectangle 69" width="10.975" height="10.975" transform="translate(21.971 98.815) rotate(-90)" fill="#6e6e6e"/>
    <rect id="Rectangle_70" data-name="Rectangle 70" width="10.975" height="10.975" transform="translate(32.945 175.66) rotate(-90)" fill="#6e6e6e"/>
    <rect id="Rectangle_71" data-name="Rectangle 71" width="10.975" height="10.975" transform="translate(32.945 164.685) rotate(-90)" fill="#6e6e6e"/>
    <rect id="Rectangle_72" data-name="Rectangle 72" width="10.975" height="10.975" transform="translate(32.924 131.74) rotate(-90)" fill="#6e6e6e"/>
    <rect id="Rectangle_73" data-name="Rectangle 73" width="10.975" height="10.975" transform="translate(32.945 120.765) rotate(-90)" fill="#6e6e6e"/>
    <rect id="Rectangle_74" data-name="Rectangle 74" width="10.975" height="10.975" transform="translate(32.945 109.79) rotate(-90)" fill="#6e6e6e"/>
    <rect id="Rectangle_75" data-name="Rectangle 75" width="10.975" height="10.975" transform="translate(32.945 98.794) rotate(-90)" fill="#6e6e6e"/>
    <rect id="Rectangle_76" data-name="Rectangle 76" width="10.975" height="10.975" transform="translate(43.92 175.66) rotate(-90)" fill="#6e6e6e"/>
    <rect id="Rectangle_77" data-name="Rectangle 77" width="10.975" height="10.975" transform="translate(43.92 164.685) rotate(-90)" fill="#6e6e6e"/>
    <rect id="Rectangle_78" data-name="Rectangle 78" width="10.975" height="10.975" transform="translate(43.92 153.71) rotate(-90)" fill="#6e6e6e"/>
    <rect id="Rectangle_79" data-name="Rectangle 79" width="10.975" height="10.975" transform="translate(43.899 142.714) rotate(-90)" fill="#6e6e6e"/>
    <rect id="Rectangle_80" data-name="Rectangle 80" width="10.975" height="10.975" transform="translate(43.92 131.74) rotate(-90)" fill="#6e6e6e"/>
    <rect id="Rectangle_81" data-name="Rectangle 81" width="10.975" height="10.975" transform="translate(43.92 109.79) rotate(-90)" fill="#6e6e6e"/>
    <rect id="Rectangle_82" data-name="Rectangle 82" width="10.975" height="10.975" transform="translate(43.92 98.815) rotate(-90)" fill="#6e6e6e"/>
    <rect id="Rectangle_83" data-name="Rectangle 83" width="10.975" height="10.975" transform="translate(54.895 164.685) rotate(-90)" fill="#6e6e6e"/>
    <rect id="Rectangle_84" data-name="Rectangle 84" width="10.975" height="10.975" transform="translate(54.895 142.735) rotate(-90)" fill="#6e6e6e"/>
    <rect id="Rectangle_85" data-name="Rectangle 85" width="10.975" height="10.975" transform="translate(54.895 131.74) rotate(-90)" fill="#6e6e6e"/>
    <rect id="Rectangle_86" data-name="Rectangle 86" width="10.975" height="10.975" transform="translate(54.895 120.765) rotate(-90)" fill="#6e6e6e"/>
    <rect id="Rectangle_87" data-name="Rectangle 87" width="10.975" height="10.975" transform="translate(54.895 109.79) rotate(-90)" fill="#6e6e6e"/>
    <rect id="Rectangle_88" data-name="Rectangle 88" width="10.975" height="10.975" transform="translate(54.895 98.815) rotate(-90)" fill="#6e6e6e"/>
    <rect id="Rectangle_89" data-name="Rectangle 89" width="10.975" height="10.975" transform="translate(65.87 164.685) rotate(-90)" fill="#6e6e6e"/>
    <rect id="Rectangle_90" data-name="Rectangle 90" width="10.975" height="10.975" transform="translate(65.891 153.71) rotate(-90)" fill="#6e6e6e"/>
    <rect id="Rectangle_91" data-name="Rectangle 91" width="10.975" height="10.975" transform="translate(65.87 142.735) rotate(-90)" fill="#6e6e6e"/>
    <rect id="Rectangle_92" data-name="Rectangle 92" width="10.975" height="10.975" transform="translate(65.891 98.815) rotate(-90)" fill="#6e6e6e"/>
    <rect id="Rectangle_93" data-name="Rectangle 93" width="10.975" height="10.975" transform="translate(0 76.845) rotate(-90)" fill="#6e6e6e"/>
    <rect id="Rectangle_94" data-name="Rectangle 94" width="10.975" height="10.975" transform="translate(0 65.87) rotate(-90)" fill="#6e6e6e"/>
    <rect id="Rectangle_95" data-name="Rectangle 95" width="10.975" height="10.975" transform="translate(0 54.895) rotate(-90)" fill="#6e6e6e"/>
    <rect id="Rectangle_96" data-name="Rectangle 96" width="10.975" height="10.975" transform="translate(0 43.92) rotate(-90)" fill="#6e6e6e"/>
    <rect id="Rectangle_97" data-name="Rectangle 97" width="10.975" height="10.975" transform="translate(0 32.945) rotate(-90)" fill="#6e6e6e"/>
    <rect id="Rectangle_98" data-name="Rectangle 98" width="10.975" height="10.975" transform="translate(0 21.95) rotate(-90)" fill="#6e6e6e"/>
    <rect id="Rectangle_99" data-name="Rectangle 99" width="10.975" height="10.975" transform="translate(0 10.975) rotate(-90)" fill="#6e6e6e"/>
    <rect id="Rectangle_100" data-name="Rectangle 100" width="10.975" height="10.975" transform="translate(10.975 10.975) rotate(-90)" fill="#6e6e6e"/>
    <rect id="Rectangle_101" data-name="Rectangle 101" width="10.975" height="10.975" transform="translate(21.95 76.865) rotate(-90)" fill="#6e6e6e"/>
    <rect id="Rectangle_102" data-name="Rectangle 102" width="10.975" height="10.975" transform="translate(10.975 76.865) rotate(-90)" fill="#6e6e6e"/>
    <rect id="Rectangle_103" data-name="Rectangle 103" width="10.975" height="10.975" transform="translate(21.971 54.895) rotate(-90)" fill="#6e6e6e"/>
    <rect id="Rectangle_104" data-name="Rectangle 104" width="10.975" height="10.975" transform="translate(21.971 43.92) rotate(-90)" fill="#6e6e6e"/>
    <rect id="Rectangle_105" data-name="Rectangle 105" width="10.975" height="10.975" transform="translate(21.95 32.945) rotate(-90)" fill="#6e6e6e"/>
    <rect id="Rectangle_106" data-name="Rectangle 106" width="10.975" height="10.975" transform="translate(21.95 10.996) rotate(-90)" fill="#6e6e6e"/>
    <rect id="Rectangle_107" data-name="Rectangle 107" width="10.975" height="10.975" transform="translate(32.924 76.845) rotate(-90)" fill="#6e6e6e"/>
    <rect id="Rectangle_108" data-name="Rectangle 108" width="10.975" height="10.975" transform="translate(32.945 54.895) rotate(-90)" fill="#6e6e6e"/>
    <rect id="Rectangle_109" data-name="Rectangle 109" width="10.975" height="10.975" transform="translate(32.945 43.899) rotate(-90)" fill="#6e6e6e"/>
    <rect id="Rectangle_110" data-name="Rectangle 110" width="10.975" height="10.975" transform="translate(32.924 32.924) rotate(-90)" fill="#6e6e6e"/>
    <rect id="Rectangle_111" data-name="Rectangle 111" width="10.975" height="10.975" transform="translate(32.945 10.975) rotate(-90)" fill="#6e6e6e"/>
    <rect id="Rectangle_112" data-name="Rectangle 112" width="10.975" height="10.975" transform="translate(43.92 76.845) rotate(-90)" fill="#6e6e6e"/>
    <rect id="Rectangle_113" data-name="Rectangle 113" width="10.975" height="10.975" transform="translate(43.92 54.895) rotate(-90)" fill="#6e6e6e"/>
    <rect id="Rectangle_114" data-name="Rectangle 114" width="10.975" height="10.975" transform="translate(43.92 43.92) rotate(-90)" fill="#6e6e6e"/>
    <rect id="Rectangle_115" data-name="Rectangle 115" width="10.975" height="10.975" transform="translate(43.899 32.924) rotate(-90)" fill="#6e6e6e"/>
    <rect id="Rectangle_116" data-name="Rectangle 116" width="10.975" height="10.975" transform="translate(43.92 10.975) rotate(-90)" fill="#6e6e6e"/>
    <rect id="Rectangle_117" data-name="Rectangle 117" width="10.975" height="10.975" transform="translate(54.895 76.845) rotate(-90)" fill="#6e6e6e"/>
    <rect id="Rectangle_118" data-name="Rectangle 118" width="10.975" height="10.975" transform="translate(54.895 10.975) rotate(-90)" fill="#6e6e6e"/>
    <rect id="Rectangle_119" data-name="Rectangle 119" width="10.975" height="10.975" transform="translate(65.87 76.865) rotate(-90)" fill="#6e6e6e"/>
    <rect id="Rectangle_120" data-name="Rectangle 120" width="10.975" height="10.975" transform="translate(65.87 65.87) rotate(-90)" fill="#6e6e6e"/>
    <rect id="Rectangle_121" data-name="Rectangle 121" width="10.975" height="10.975" transform="translate(65.87 54.895) rotate(-90)" fill="#6e6e6e"/>
    <rect id="Rectangle_122" data-name="Rectangle 122" width="10.975" height="10.975" transform="translate(65.891 43.92) rotate(-90)" fill="#6e6e6e"/>
    <rect id="Rectangle_123" data-name="Rectangle 123" width="10.975" height="10.975" transform="translate(65.87 32.945) rotate(-90)" fill="#6e6e6e"/>
    <rect id="Rectangle_124" data-name="Rectangle 124" width="10.975" height="10.975" transform="translate(65.87 21.971) rotate(-90)" fill="#6e6e6e"/>
    <rect id="Rectangle_125" data-name="Rectangle 125" width="10.975" height="10.975" transform="translate(65.87 10.975) rotate(-90)" fill="#6e6e6e"/>
    <rect id="Rectangle_126" data-name="Rectangle 126" width="10.975" height="10.975" transform="translate(76.845 175.681) rotate(-90)" fill="#6e6e6e"/>
    <rect id="Rectangle_127" data-name="Rectangle 127" width="10.975" height="10.975" transform="translate(76.865 164.685) rotate(-90)" fill="#6e6e6e"/>
    <rect id="Rectangle_128" data-name="Rectangle 128" width="10.975" height="10.975" transform="translate(76.845 142.735) rotate(-90)" fill="#6e6e6e"/>
    <rect id="Rectangle_129" data-name="Rectangle 129" width="10.975" height="10.975" transform="translate(76.865 109.79) rotate(-90)" fill="#6e6e6e"/>
    <rect id="Rectangle_130" data-name="Rectangle 130" width="10.975" height="10.975" transform="translate(76.865 98.815) rotate(-90)" fill="#6e6e6e"/>
    <rect id="Rectangle_131" data-name="Rectangle 131" width="10.975" height="10.975" transform="translate(87.84 98.794) rotate(-90)" fill="#6e6e6e"/>
    <rect id="Rectangle_132" data-name="Rectangle 132" width="10.975" height="10.975" transform="translate(87.819 21.95) rotate(-90)" fill="#6e6e6e"/>
    <rect id="Rectangle_133" data-name="Rectangle 133" width="10.975" height="10.975" transform="translate(87.819 76.845) rotate(-90)" fill="#6e6e6e"/>
    <rect id="Rectangle_134" data-name="Rectangle 134" width="10.975" height="10.975" transform="translate(87.84 54.895) rotate(-90)" fill="#6e6e6e"/>
    <rect id="Rectangle_135" data-name="Rectangle 135" width="10.975" height="10.975" transform="translate(98.794 252.525) rotate(-90)" fill="#6e6e6e"/>
    <rect id="Rectangle_136" data-name="Rectangle 136" width="10.975" height="10.975" transform="translate(87.84 263.5) rotate(-90)" fill="#6e6e6e"/>
    <rect id="Rectangle_137" data-name="Rectangle 137" width="10.975" height="10.975" transform="translate(98.815 208.605) rotate(-90)" fill="#6e6e6e"/>
    <rect id="Rectangle_138" data-name="Rectangle 138" width="10.975" height="10.975" transform="translate(98.794 197.609) rotate(-90)" fill="#6e6e6e"/>
    <rect id="Rectangle_139" data-name="Rectangle 139" width="10.975" height="10.975" transform="translate(98.815 186.634) rotate(-90)" fill="#6e6e6e"/>
    <rect id="Rectangle_140" data-name="Rectangle 140" width="10.975" height="10.975" transform="translate(98.815 98.815) rotate(-90)" fill="#6e6e6e"/>
    <rect id="Rectangle_141" data-name="Rectangle 141" width="10.975" height="10.975" transform="translate(98.815 65.87) rotate(-90)" fill="#6e6e6e"/>
    <rect id="Rectangle_142" data-name="Rectangle 142" width="10.975" height="10.975" transform="translate(98.794 32.924) rotate(-90)" fill="#6e6e6e"/>
    <rect id="Rectangle_143" data-name="Rectangle 143" width="10.975" height="10.975" transform="translate(98.815 21.95) rotate(-90)" fill="#6e6e6e"/>
    <rect id="Rectangle_144" data-name="Rectangle 144" width="10.975" height="10.975" transform="translate(98.815 10.975) rotate(-90)" fill="#6e6e6e"/>
    <rect id="Rectangle_145" data-name="Rectangle 145" width="10.975" height="10.975" transform="translate(76.845 131.76) rotate(-90)" fill="#6e6e6e"/>
    <rect id="Rectangle_146" data-name="Rectangle 146" width="10.975" height="10.975" transform="translate(87.84 120.765) rotate(-90)" fill="#6e6e6e"/>
    <rect id="Rectangle_147" data-name="Rectangle 147" width="10.975" height="10.975" transform="translate(109.79 252.525) rotate(-90)" fill="#6e6e6e"/>
    <rect id="Rectangle_148" data-name="Rectangle 148" width="10.975" height="10.975" transform="translate(109.79 241.55) rotate(-90)" fill="#6e6e6e"/>
    <rect id="Rectangle_149" data-name="Rectangle 149" width="10.975" height="10.975" transform="translate(109.79 208.605) rotate(-90)" fill="#6e6e6e"/>
    <rect id="Rectangle_150" data-name="Rectangle 150" width="10.975" height="10.975" transform="translate(109.79 197.63) rotate(-90)" fill="#6e6e6e"/>
    <rect id="Rectangle_151" data-name="Rectangle 151" width="10.975" height="10.975" transform="translate(109.79 186.634) rotate(-90)" fill="#6e6e6e"/>
    <rect id="Rectangle_152" data-name="Rectangle 152" width="10.975" height="10.975" transform="translate(109.79 175.66) rotate(-90)" fill="#6e6e6e"/>
    <rect id="Rectangle_153" data-name="Rectangle 153" width="10.975" height="10.975" transform="translate(109.79 164.685) rotate(-90)" fill="#6e6e6e"/>
    <rect id="Rectangle_154" data-name="Rectangle 154" width="10.975" height="10.975" transform="translate(109.79 153.71) rotate(-90)" fill="#6e6e6e"/>
    <rect id="Rectangle_155" data-name="Rectangle 155" width="10.975" height="10.975" transform="translate(109.79 142.735) rotate(-90)" fill="#6e6e6e"/>
    <rect id="Rectangle_156" data-name="Rectangle 156" width="10.975" height="10.975" transform="translate(109.79 131.74) rotate(-90)" fill="#6e6e6e"/>
    <rect id="Rectangle_157" data-name="Rectangle 157" width="10.975" height="10.975" transform="translate(109.79 120.765) rotate(-90)" fill="#6e6e6e"/>
    <rect id="Rectangle_158" data-name="Rectangle 158" width="10.975" height="10.975" transform="translate(109.79 87.84) rotate(-90)" fill="#6e6e6e"/>
    <rect id="Rectangle_159" data-name="Rectangle 159" width="10.975" height="10.975" transform="translate(109.79 76.845) rotate(-90)" fill="#6e6e6e"/>
    <rect id="Rectangle_160" data-name="Rectangle 160" width="10.975" height="10.975" transform="translate(109.79 65.87) rotate(-90)" fill="#6e6e6e"/>
    <rect id="Rectangle_161" data-name="Rectangle 161" width="10.975" height="10.975" transform="translate(109.79 32.945) rotate(-90)" fill="#6e6e6e"/>
    <rect id="Rectangle_162" data-name="Rectangle 162" width="10.975" height="10.975" transform="translate(109.79 21.95) rotate(-90)" fill="#6e6e6e"/>
    <rect id="Rectangle_163" data-name="Rectangle 163" width="10.975" height="10.975" transform="translate(120.765 252.525) rotate(-90)" fill="#6e6e6e"/>
    <rect id="Rectangle_164" data-name="Rectangle 164" width="10.975" height="10.975" transform="translate(120.765 241.55) rotate(-90)" fill="#6e6e6e"/>
    <rect id="Rectangle_165" data-name="Rectangle 165" width="10.975" height="10.975" transform="translate(120.765 197.63) rotate(-90)" fill="#6e6e6e"/>
    <rect id="Rectangle_166" data-name="Rectangle 166" width="10.975" height="10.975" transform="translate(120.765 186.655) rotate(-90)" fill="#6e6e6e"/>
    <rect id="Rectangle_167" data-name="Rectangle 167" width="10.975" height="10.975" transform="translate(120.786 153.71) rotate(-90)" fill="#6e6e6e"/>
    <rect id="Rectangle_168" data-name="Rectangle 168" width="10.975" height="10.975" transform="translate(120.765 142.735) rotate(-90)" fill="#6e6e6e"/>
    <rect id="Rectangle_169" data-name="Rectangle 169" width="10.975" height="10.975" transform="translate(120.765 109.79) rotate(-90)" fill="#6e6e6e"/>
    <rect id="Rectangle_170" data-name="Rectangle 170" width="10.975" height="10.975" transform="translate(120.786 98.815) rotate(-90)" fill="#6e6e6e"/>
    <rect id="Rectangle_171" data-name="Rectangle 171" width="10.975" height="10.975" transform="translate(120.765 87.84) rotate(-90)" fill="#6e6e6e"/>
    <rect id="Rectangle_172" data-name="Rectangle 172" width="10.975" height="10.975" transform="translate(120.765 76.865) rotate(-90)" fill="#6e6e6e"/>
    <rect id="Rectangle_173" data-name="Rectangle 173" width="10.975" height="10.975" transform="translate(120.765 65.87) rotate(-90)" fill="#6e6e6e"/>
    <rect id="Rectangle_174" data-name="Rectangle 174" width="10.975" height="10.975" transform="translate(120.786 43.92) rotate(-90)" fill="#6e6e6e"/>
    <rect id="Rectangle_175" data-name="Rectangle 175" width="10.975" height="10.975" transform="translate(120.765 21.971) rotate(-90)" fill="#6e6e6e"/>
    <rect id="Rectangle_176" data-name="Rectangle 176" width="10.975" height="10.975" transform="translate(131.76 263.5) rotate(-90)" fill="#6e6e6e"/>
    <rect id="Rectangle_177" data-name="Rectangle 177" width="10.975" height="10.975" transform="translate(131.74 241.55) rotate(-90)" fill="#6e6e6e"/>
    <rect id="Rectangle_178" data-name="Rectangle 178" width="10.975" height="10.975" transform="translate(131.74 230.576) rotate(-90)" fill="#6e6e6e"/>
    <rect id="Rectangle_179" data-name="Rectangle 179" width="10.975" height="10.975" transform="translate(131.76 208.605) rotate(-90)" fill="#6e6e6e"/>
    <rect id="Rectangle_180" data-name="Rectangle 180" width="10.975" height="10.975" transform="translate(131.74 197.63) rotate(-90)" fill="#6e6e6e"/>
    <rect id="Rectangle_181" data-name="Rectangle 181" width="10.975" height="10.975" transform="translate(131.74 186.655) rotate(-90)" fill="#6e6e6e"/>
    <rect id="Rectangle_182" data-name="Rectangle 182" width="10.975" height="10.975" transform="translate(131.74 175.681) rotate(-90)" fill="#6e6e6e"/>
    <rect id="Rectangle_183" data-name="Rectangle 183" width="10.975" height="10.975" transform="translate(131.76 109.79) rotate(-90)" fill="#6e6e6e"/>
    <rect id="Rectangle_184" data-name="Rectangle 184" width="10.975" height="10.975" transform="translate(131.76 98.815) rotate(-90)" fill="#6e6e6e"/>
    <rect id="Rectangle_185" data-name="Rectangle 185" width="10.975" height="10.975" transform="translate(153.71 54.895) rotate(-90)" fill="#6e6e6e"/>
    <rect id="Rectangle_186" data-name="Rectangle 186" width="10.975" height="10.975" transform="translate(131.74 76.865) rotate(-90)" fill="#6e6e6e"/>
    <rect id="Rectangle_187" data-name="Rectangle 187" width="10.975" height="10.975" transform="translate(131.74 65.891) rotate(-90)" fill="#6e6e6e"/>
    <rect id="Rectangle_188" data-name="Rectangle 188" width="10.975" height="10.975" transform="translate(131.76 43.92) rotate(-90)" fill="#6e6e6e"/>
    <rect id="Rectangle_189" data-name="Rectangle 189" width="10.975" height="10.975" transform="translate(142.735 263.5) rotate(-90)" fill="#6e6e6e"/>
    <rect id="Rectangle_190" data-name="Rectangle 190" width="10.975" height="10.975" transform="translate(142.714 252.504) rotate(-90)" fill="#6e6e6e"/>
    <rect id="Rectangle_191" data-name="Rectangle 191" width="10.975" height="10.975" transform="translate(142.714 241.529) rotate(-90)" fill="#6e6e6e"/>
    <rect id="Rectangle_192" data-name="Rectangle 192" width="10.975" height="10.975" transform="translate(142.735 208.605) rotate(-90)" fill="#6e6e6e"/>
    <rect id="Rectangle_193" data-name="Rectangle 193" width="10.975" height="10.975" transform="translate(142.735 175.66) rotate(-90)" fill="#6e6e6e"/>
    <rect id="Rectangle_194" data-name="Rectangle 194" width="10.975" height="10.975" transform="translate(142.735 120.765) rotate(-90)" fill="#6e6e6e"/>
    <rect id="Rectangle_195" data-name="Rectangle 195" width="10.975" height="10.975" transform="translate(142.735 109.79) rotate(-90)" fill="#6e6e6e"/>
    <rect id="Rectangle_196" data-name="Rectangle 196" width="10.975" height="10.975" transform="translate(142.735 98.794) rotate(-90)" fill="#6e6e6e"/>
    <rect id="Rectangle_197" data-name="Rectangle 197" width="10.975" height="10.975" transform="translate(142.714 76.845) rotate(-90)" fill="#6e6e6e"/>
    <rect id="Rectangle_198" data-name="Rectangle 198" width="10.975" height="10.975" transform="translate(142.735 65.87) rotate(-90)" fill="#6e6e6e"/>
    <rect id="Rectangle_199" data-name="Rectangle 199" width="10.975" height="10.975" transform="translate(142.735 10.975) rotate(-90)" fill="#6e6e6e"/>
    <rect id="Rectangle_200" data-name="Rectangle 200" width="10.975" height="10.975" transform="translate(153.71 263.5) rotate(-90)" fill="#6e6e6e"/>
    <rect id="Rectangle_201" data-name="Rectangle 201" width="10.975" height="10.975" transform="translate(153.689 252.525) rotate(-90)" fill="#6e6e6e"/>
    <rect id="Rectangle_202" data-name="Rectangle 202" width="10.975" height="10.975" transform="translate(153.71 241.529) rotate(-90)" fill="#6e6e6e"/>
    <rect id="Rectangle_203" data-name="Rectangle 203" width="10.975" height="10.975" transform="translate(153.71 230.555) rotate(-90)" fill="#6e6e6e"/>
    <rect id="Rectangle_204" data-name="Rectangle 204" width="10.975" height="10.975" transform="translate(153.71 219.58) rotate(-90)" fill="#6e6e6e"/>
    <rect id="Rectangle_205" data-name="Rectangle 205" width="10.975" height="10.975" transform="translate(153.71 208.605) rotate(-90)" fill="#6e6e6e"/>
    <rect id="Rectangle_206" data-name="Rectangle 206" width="10.975" height="10.975" transform="translate(153.71 175.66) rotate(-90)" fill="#6e6e6e"/>
    <rect id="Rectangle_207" data-name="Rectangle 207" width="10.975" height="10.975" transform="translate(153.71 153.71) rotate(-90)" fill="#6e6e6e"/>
    <rect id="Rectangle_208" data-name="Rectangle 208" width="10.975" height="10.975" transform="translate(153.689 142.714) rotate(-90)" fill="#6e6e6e"/>
    <rect id="Rectangle_209" data-name="Rectangle 209" width="10.975" height="10.975" transform="translate(153.71 109.79) rotate(-90)" fill="#6e6e6e"/>
    <rect id="Rectangle_210" data-name="Rectangle 210" width="10.975" height="10.975" transform="translate(153.71 21.95) rotate(-90)" fill="#6e6e6e"/>
    <rect id="Rectangle_211" data-name="Rectangle 211" width="10.975" height="10.975" transform="translate(153.71 10.975) rotate(-90)" fill="#6e6e6e"/>
    <rect id="Rectangle_212" data-name="Rectangle 212" width="10.975" height="10.975" transform="translate(164.685 263.5) rotate(-90)" fill="#6e6e6e"/>
    <rect id="Rectangle_213" data-name="Rectangle 213" width="10.975" height="10.975" transform="translate(164.685 230.555) rotate(-90)" fill="#6e6e6e"/>
    <rect id="Rectangle_214" data-name="Rectangle 214" width="10.975" height="10.975" transform="translate(164.685 219.58) rotate(-90)" fill="#6e6e6e"/>
    <rect id="Rectangle_215" data-name="Rectangle 215" width="10.975" height="10.975" transform="translate(164.685 208.605) rotate(-90)" fill="#6e6e6e"/>
    <rect id="Rectangle_216" data-name="Rectangle 216" width="10.975" height="10.975" transform="translate(164.685 197.63) rotate(-90)" fill="#6e6e6e"/>
    <rect id="Rectangle_217" data-name="Rectangle 217" width="10.975" height="10.975" transform="translate(164.685 186.655) rotate(-90)" fill="#6e6e6e"/>
    <rect id="Rectangle_218" data-name="Rectangle 218" width="10.975" height="10.975" transform="translate(164.685 175.66) rotate(-90)" fill="#6e6e6e"/>
    <rect id="Rectangle_219" data-name="Rectangle 219" width="10.975" height="10.975" transform="translate(164.685 153.71) rotate(-90)" fill="#6e6e6e"/>
    <rect id="Rectangle_220" data-name="Rectangle 220" width="10.975" height="10.975" transform="translate(164.685 142.735) rotate(-90)" fill="#6e6e6e"/>
    <rect id="Rectangle_221" data-name="Rectangle 221" width="10.975" height="10.975" transform="translate(164.685 131.74) rotate(-90)" fill="#6e6e6e"/>
    <rect id="Rectangle_222" data-name="Rectangle 222" width="10.975" height="10.975" transform="translate(164.685 120.765) rotate(-90)" fill="#6e6e6e"/>
    <rect id="Rectangle_223" data-name="Rectangle 223" width="10.975" height="10.975" transform="translate(164.685 109.79) rotate(-90)" fill="#6e6e6e"/>
    <rect id="Rectangle_224" data-name="Rectangle 224" width="10.975" height="10.975" transform="translate(164.685 98.815) rotate(-90)" fill="#6e6e6e"/>
    <rect id="Rectangle_225" data-name="Rectangle 225" width="10.975" height="10.975" transform="translate(164.685 43.92) rotate(-90)" fill="#6e6e6e"/>
    <rect id="Rectangle_226" data-name="Rectangle 226" width="10.975" height="10.975" transform="translate(164.685 32.945) rotate(-90)" fill="#6e6e6e"/>
    <rect id="Rectangle_227" data-name="Rectangle 227" width="10.975" height="10.975" transform="translate(164.685 21.95) rotate(-90)" fill="#6e6e6e"/>
    <rect id="Rectangle_228" data-name="Rectangle 228" width="10.975" height="10.975" transform="translate(164.685 10.975) rotate(-90)" fill="#6e6e6e"/>
    <rect id="Rectangle_229" data-name="Rectangle 229" width="10.975" height="10.975" transform="translate(87.84 219.58) rotate(-90)" fill="#6e6e6e"/>
    <rect id="Rectangle_230" data-name="Rectangle 230" width="10.975" height="10.975" transform="translate(87.84 164.685) rotate(-90)" fill="#6e6e6e"/>
    <rect id="Rectangle_231" data-name="Rectangle 231" width="10.975" height="10.975" transform="translate(175.681 263.5) rotate(-90)" fill="#6e6e6e"/>
    <rect id="Rectangle_232" data-name="Rectangle 232" width="10.975" height="10.975" transform="translate(175.66 252.525) rotate(-90)" fill="#6e6e6e"/>
    <rect id="Rectangle_233" data-name="Rectangle 233" width="10.975" height="10.975" transform="translate(175.66 241.55) rotate(-90)" fill="#6e6e6e"/>
    <rect id="Rectangle_234" data-name="Rectangle 234" width="10.975" height="10.975" transform="translate(175.66 230.576) rotate(-90)" fill="#6e6e6e"/>
    <rect id="Rectangle_235" data-name="Rectangle 235" width="10.975" height="10.975" transform="translate(175.66 219.58) rotate(-90)" fill="#6e6e6e"/>
    <rect id="Rectangle_236" data-name="Rectangle 236" width="10.975" height="10.975" transform="translate(175.681 208.605) rotate(-90)" fill="#6e6e6e"/>
    <rect id="Rectangle_237" data-name="Rectangle 237" width="10.975" height="10.975" transform="translate(175.66 197.63) rotate(-90)" fill="#6e6e6e"/>
    <rect id="Rectangle_238" data-name="Rectangle 238" width="10.975" height="10.975" transform="translate(175.66 186.655) rotate(-90)" fill="#6e6e6e"/>
    <rect id="Rectangle_239" data-name="Rectangle 239" width="10.975" height="10.975" transform="translate(175.66 175.681) rotate(-90)" fill="#6e6e6e"/>
    <rect id="Rectangle_240" data-name="Rectangle 240" width="10.975" height="10.975" transform="translate(175.66 164.685) rotate(-90)" fill="#6e6e6e"/>
    <rect id="Rectangle_241" data-name="Rectangle 241" width="10.975" height="10.975" transform="translate(175.681 153.71) rotate(-90)" fill="#6e6e6e"/>
    <rect id="Rectangle_242" data-name="Rectangle 242" width="10.975" height="10.975" transform="translate(175.66 131.76) rotate(-90)" fill="#6e6e6e"/>
    <rect id="Rectangle_243" data-name="Rectangle 243" width="10.975" height="10.975" transform="translate(175.66 120.765) rotate(-90)" fill="#6e6e6e"/>
    <rect id="Rectangle_244" data-name="Rectangle 244" width="10.975" height="10.975" transform="translate(175.66 109.79) rotate(-90)" fill="#6e6e6e"/>
    <rect id="Rectangle_245" data-name="Rectangle 245" width="10.975" height="10.975" transform="translate(186.634 230.576) rotate(-90)" fill="#6e6e6e"/>
    <rect id="Rectangle_246" data-name="Rectangle 246" width="10.975" height="10.975" transform="translate(186.634 197.63) rotate(-90)" fill="#6e6e6e"/>
    <rect id="Rectangle_247" data-name="Rectangle 247" width="10.975" height="10.975" transform="translate(186.634 186.655) rotate(-90)" fill="#6e6e6e"/>
    <rect id="Rectangle_248" data-name="Rectangle 248" width="10.975" height="10.975" transform="translate(186.634 175.681) rotate(-90)" fill="#6e6e6e"/>
    <rect id="Rectangle_249" data-name="Rectangle 249" width="10.975" height="10.975" transform="translate(186.655 164.706) rotate(-90)" fill="#6e6e6e"/>
    <rect id="Rectangle_250" data-name="Rectangle 250" width="10.975" height="10.975" transform="translate(186.655 153.71) rotate(-90)" fill="#6e6e6e"/>
    <rect id="Rectangle_251" data-name="Rectangle 251" width="10.975" height="10.975" transform="translate(186.634 142.735) rotate(-90)" fill="#6e6e6e"/>
    <rect id="Rectangle_252" data-name="Rectangle 252" width="10.975" height="10.975" transform="translate(186.634 120.786) rotate(-90)" fill="#6e6e6e"/>
    <rect id="Rectangle_253" data-name="Rectangle 253" width="10.975" height="10.975" transform="translate(186.655 98.815) rotate(-90)" fill="#6e6e6e"/>
    <rect id="Rectangle_254" data-name="Rectangle 254" width="10.975" height="10.975" transform="translate(197.609 197.609) rotate(-90)" fill="#6e6e6e"/>
    <rect id="Rectangle_255" data-name="Rectangle 255" width="10.975" height="10.975" transform="translate(197.63 175.66) rotate(-90)" fill="#6e6e6e"/>
    <rect id="Rectangle_256" data-name="Rectangle 256" width="10.975" height="10.975" transform="translate(197.63 153.71) rotate(-90)" fill="#6e6e6e"/>
    <rect id="Rectangle_257" data-name="Rectangle 257" width="10.975" height="10.975" transform="translate(197.609 142.714) rotate(-90)" fill="#6e6e6e"/>
    <rect id="Rectangle_258" data-name="Rectangle 258" width="10.975" height="10.975" transform="translate(197.63 120.765) rotate(-90)" fill="#6e6e6e"/>
    <rect id="Rectangle_259" data-name="Rectangle 259" width="10.975" height="10.975" transform="translate(197.63 109.79) rotate(-90)" fill="#6e6e6e"/>
    <rect id="Rectangle_260" data-name="Rectangle 260" width="10.975" height="10.975" transform="translate(197.63 98.794) rotate(-90)" fill="#6e6e6e"/>
    <rect id="Rectangle_261" data-name="Rectangle 261" width="10.975" height="10.975" transform="translate(208.584 252.525) rotate(-90)" fill="#6e6e6e"/>
    <rect id="Rectangle_262" data-name="Rectangle 262" width="10.975" height="10.975" transform="translate(208.584 197.63) rotate(-90)" fill="#6e6e6e"/>
    <rect id="Rectangle_263" data-name="Rectangle 263" width="10.975" height="10.975" transform="translate(208.605 175.66) rotate(-90)" fill="#6e6e6e"/>
    <rect id="Rectangle_264" data-name="Rectangle 264" width="10.975" height="10.975" transform="translate(208.605 153.71) rotate(-90)" fill="#6e6e6e"/>
    <rect id="Rectangle_265" data-name="Rectangle 265" width="10.975" height="10.975" transform="translate(208.605 131.74) rotate(-90)" fill="#6e6e6e"/>
    <rect id="Rectangle_266" data-name="Rectangle 266" width="10.975" height="10.975" transform="translate(208.605 120.765) rotate(-90)" fill="#6e6e6e"/>
    <rect id="Rectangle_267" data-name="Rectangle 267" width="10.975" height="10.975" transform="translate(208.605 109.79) rotate(-90)" fill="#6e6e6e"/>
    <rect id="Rectangle_268" data-name="Rectangle 268" width="10.975" height="10.975" transform="translate(219.58 263.5) rotate(-90)" fill="#6e6e6e"/>
    <rect id="Rectangle_269" data-name="Rectangle 269" width="10.975" height="10.975" transform="translate(219.58 252.525) rotate(-90)" fill="#6e6e6e"/>
    <rect id="Rectangle_270" data-name="Rectangle 270" width="10.975" height="10.975" transform="translate(219.58 219.58) rotate(-90)" fill="#6e6e6e"/>
    <rect id="Rectangle_271" data-name="Rectangle 271" width="10.975" height="10.975" transform="translate(219.58 208.605) rotate(-90)" fill="#6e6e6e"/>
    <rect id="Rectangle_272" data-name="Rectangle 272" width="10.975" height="10.975" transform="translate(197.63 219.58) rotate(-90)" fill="#6e6e6e"/>
    <rect id="Rectangle_273" data-name="Rectangle 273" width="10.975" height="10.975" transform="translate(219.58 197.63) rotate(-90)" fill="#6e6e6e"/>
    <rect id="Rectangle_274" data-name="Rectangle 274" width="10.975" height="10.975" transform="translate(219.58 175.66) rotate(-90)" fill="#6e6e6e"/>
    <rect id="Rectangle_275" data-name="Rectangle 275" width="10.975" height="10.975" transform="translate(219.58 241.55) rotate(-90)" fill="#6e6e6e"/>
    <rect id="Rectangle_276" data-name="Rectangle 276" width="10.975" height="10.975" transform="translate(219.58 230.555) rotate(-90)" fill="#6e6e6e"/>
    <rect id="Rectangle_277" data-name="Rectangle 277" width="10.975" height="10.975" transform="translate(230.555 230.576) rotate(-90)" fill="#6e6e6e"/>
    <rect id="Rectangle_278" data-name="Rectangle 278" width="10.975" height="10.975" transform="translate(241.529 241.55) rotate(-90)" fill="#6e6e6e"/>
    <rect id="Rectangle_279" data-name="Rectangle 279" width="10.975" height="10.975" transform="translate(241.529 230.576) rotate(-90)" fill="#6e6e6e"/>
    <rect id="Rectangle_280" data-name="Rectangle 280" width="10.975" height="10.975" transform="translate(219.58 120.765) rotate(-90)" fill="#6e6e6e"/>
    <rect id="Rectangle_281" data-name="Rectangle 281" width="10.975" height="10.975" transform="translate(219.58 109.79) rotate(-90)" fill="#6e6e6e"/>
    <rect id="Rectangle_282" data-name="Rectangle 282" width="10.975" height="10.975" transform="translate(219.58 98.815) rotate(-90)" fill="#6e6e6e"/>
    <rect id="Rectangle_283" data-name="Rectangle 283" width="10.975" height="10.975" transform="translate(230.576 263.5) rotate(-90)" fill="#6e6e6e"/>
    <rect id="Rectangle_284" data-name="Rectangle 284" width="10.975" height="10.975" transform="translate(230.576 208.605) rotate(-90)" fill="#6e6e6e"/>
    <rect id="Rectangle_285" data-name="Rectangle 285" width="10.975" height="10.975" transform="translate(230.555 197.63) rotate(-90)" fill="#6e6e6e"/>
    <rect id="Rectangle_286" data-name="Rectangle 286" width="10.975" height="10.975" transform="translate(230.555 186.655) rotate(-90)" fill="#6e6e6e"/>
    <rect id="Rectangle_287" data-name="Rectangle 287" width="10.975" height="10.975" transform="translate(230.555 131.76) rotate(-90)" fill="#6e6e6e"/>
    <rect id="Rectangle_288" data-name="Rectangle 288" width="10.975" height="10.975" transform="translate(230.576 98.815) rotate(-90)" fill="#6e6e6e"/>
    <rect id="Rectangle_289" data-name="Rectangle 289" width="10.975" height="10.975" transform="translate(241.55 208.605) rotate(-90)" fill="#6e6e6e"/>
    <rect id="Rectangle_290" data-name="Rectangle 290" width="10.975" height="10.975" transform="translate(241.529 197.63) rotate(-90)" fill="#6e6e6e"/>
    <rect id="Rectangle_291" data-name="Rectangle 291" width="10.975" height="10.975" transform="translate(241.55 153.71) rotate(-90)" fill="#6e6e6e"/>
    <rect id="Rectangle_292" data-name="Rectangle 292" width="10.975" height="10.975" transform="translate(241.529 142.735) rotate(-90)" fill="#6e6e6e"/>
    <rect id="Rectangle_293" data-name="Rectangle 293" width="10.975" height="10.975" transform="translate(241.529 131.76) rotate(-90)" fill="#6e6e6e"/>
    <rect id="Rectangle_294" data-name="Rectangle 294" width="10.975" height="10.975" transform="translate(241.55 98.815) rotate(-90)" fill="#6e6e6e"/>
    <rect id="Rectangle_295" data-name="Rectangle 295" width="10.975" height="10.975" transform="translate(252.525 263.5) rotate(-90)" fill="#6e6e6e"/>
    <rect id="Rectangle_296" data-name="Rectangle 296" width="10.975" height="10.975" transform="translate(252.525 219.58) rotate(-90)" fill="#6e6e6e"/>
    <rect id="Rectangle_297" data-name="Rectangle 297" width="10.975" height="10.975" transform="translate(252.525 208.605) rotate(-90)" fill="#6e6e6e"/>
    <rect id="Rectangle_298" data-name="Rectangle 298" width="10.975" height="10.975" transform="translate(252.504 197.609) rotate(-90)" fill="#6e6e6e"/>
    <rect id="Rectangle_299" data-name="Rectangle 299" width="10.975" height="10.975" transform="translate(252.525 175.66) rotate(-90)" fill="#6e6e6e"/>
    <rect id="Rectangle_300" data-name="Rectangle 300" width="10.975" height="10.975" transform="translate(252.525 153.71) rotate(-90)" fill="#6e6e6e"/>
    <rect id="Rectangle_301" data-name="Rectangle 301" width="10.975" height="10.975" transform="translate(252.504 142.714) rotate(-90)" fill="#6e6e6e"/>
    <rect id="Rectangle_302" data-name="Rectangle 302" width="10.975" height="10.975" transform="translate(252.504 131.74) rotate(-90)" fill="#6e6e6e"/>
    <rect id="Rectangle_303" data-name="Rectangle 303" width="10.975" height="10.975" transform="translate(252.525 109.79) rotate(-90)" fill="#6e6e6e"/>
    <rect id="Rectangle_304" data-name="Rectangle 304" width="10.975" height="10.975" transform="translate(252.525 98.815) rotate(-90)" fill="#6e6e6e"/>
    <rect id="Rectangle_305" data-name="Rectangle 305" width="10.975" height="10.975" transform="translate(186.634 76.865) rotate(-90)" fill="#6e6e6e"/>
    <rect id="Rectangle_306" data-name="Rectangle 306" width="10.975" height="10.975" transform="translate(186.634 65.891) rotate(-90)" fill="#6e6e6e"/>
    <rect id="Rectangle_307" data-name="Rectangle 307" width="10.975" height="10.975" transform="translate(186.655 54.895) rotate(-90)" fill="#6e6e6e"/>
    <rect id="Rectangle_308" data-name="Rectangle 308" width="10.975" height="10.975" transform="translate(186.655 43.92) rotate(-90)" fill="#6e6e6e"/>
    <rect id="Rectangle_309" data-name="Rectangle 309" width="10.975" height="10.975" transform="translate(186.634 32.945) rotate(-90)" fill="#6e6e6e"/>
    <rect id="Rectangle_310" data-name="Rectangle 310" width="10.975" height="10.975" transform="translate(186.634 21.971) rotate(-90)" fill="#6e6e6e"/>
    <rect id="Rectangle_311" data-name="Rectangle 311" width="10.975" height="10.975" transform="translate(186.634 10.996) rotate(-90)" fill="#6e6e6e"/>
    <rect id="Rectangle_312" data-name="Rectangle 312" width="10.975" height="10.975" transform="translate(197.63 10.975) rotate(-90)" fill="#6e6e6e"/>
    <rect id="Rectangle_313" data-name="Rectangle 313" width="10.975" height="10.975" transform="translate(208.605 76.845) rotate(-90)" fill="#6e6e6e"/>
    <rect id="Rectangle_314" data-name="Rectangle 314" width="10.975" height="10.975" transform="translate(197.609 76.845) rotate(-90)" fill="#6e6e6e"/>
    <rect id="Rectangle_315" data-name="Rectangle 315" width="10.975" height="10.975" transform="translate(208.605 54.895) rotate(-90)" fill="#6e6e6e"/>
    <rect id="Rectangle_316" data-name="Rectangle 316" width="10.975" height="10.975" transform="translate(208.605 43.92) rotate(-90)" fill="#6e6e6e"/>
    <rect id="Rectangle_317" data-name="Rectangle 317" width="10.975" height="10.975" transform="translate(208.584 32.924) rotate(-90)" fill="#6e6e6e"/>
    <rect id="Rectangle_318" data-name="Rectangle 318" width="10.975" height="10.975" transform="translate(208.605 10.975) rotate(-90)" fill="#6e6e6e"/>
    <rect id="Rectangle_319" data-name="Rectangle 319" width="10.975" height="10.975" transform="translate(219.58 76.845) rotate(-90)" fill="#6e6e6e"/>
    <rect id="Rectangle_320" data-name="Rectangle 320" width="10.975" height="10.975" transform="translate(219.58 54.895) rotate(-90)" fill="#6e6e6e"/>
    <rect id="Rectangle_321" data-name="Rectangle 321" width="10.975" height="10.975" transform="translate(219.58 43.92) rotate(-90)" fill="#6e6e6e"/>
    <rect id="Rectangle_322" data-name="Rectangle 322" width="10.975" height="10.975" transform="translate(219.58 32.945) rotate(-90)" fill="#6e6e6e"/>
    <rect id="Rectangle_323" data-name="Rectangle 323" width="10.975" height="10.975" transform="translate(219.58 10.975) rotate(-90)" fill="#6e6e6e"/>
    <rect id="Rectangle_324" data-name="Rectangle 324" width="10.975" height="10.975" transform="translate(230.555 76.865) rotate(-90)" fill="#6e6e6e"/>
    <rect id="Rectangle_325" data-name="Rectangle 325" width="10.975" height="10.975" transform="translate(230.555 54.895) rotate(-90)" fill="#6e6e6e"/>
    <rect id="Rectangle_326" data-name="Rectangle 326" width="10.975" height="10.975" transform="translate(230.576 43.92) rotate(-90)" fill="#6e6e6e"/>
    <rect id="Rectangle_327" data-name="Rectangle 327" width="10.975" height="10.975" transform="translate(230.555 32.945) rotate(-90)" fill="#6e6e6e"/>
    <rect id="Rectangle_328" data-name="Rectangle 328" width="10.975" height="10.975" transform="translate(230.555 10.975) rotate(-90)" fill="#6e6e6e"/>
    <rect id="Rectangle_329" data-name="Rectangle 329" width="10.975" height="10.975" transform="translate(241.529 76.865) rotate(-90)" fill="#6e6e6e"/>
    <rect id="Rectangle_330" data-name="Rectangle 330" width="10.975" height="10.975" transform="translate(241.529 10.996) rotate(-90)" fill="#6e6e6e"/>
    <rect id="Rectangle_331" data-name="Rectangle 331" width="10.975" height="10.975" transform="translate(252.504 76.845) rotate(-90)" fill="#6e6e6e"/>
    <rect id="Rectangle_332" data-name="Rectangle 332" width="10.975" height="10.975" transform="translate(252.525 65.87) rotate(-90)" fill="#6e6e6e"/>
    <rect id="Rectangle_333" data-name="Rectangle 333" width="10.975" height="10.975" transform="translate(252.525 54.895) rotate(-90)" fill="#6e6e6e"/>
    <rect id="Rectangle_334" data-name="Rectangle 334" width="10.975" height="10.975" transform="translate(252.525 43.899) rotate(-90)" fill="#6e6e6e"/>
    <rect id="Rectangle_335" data-name="Rectangle 335" width="10.975" height="10.975" transform="translate(252.504 32.924) rotate(-90)" fill="#6e6e6e"/>
    <rect id="Rectangle_336" data-name="Rectangle 336" width="10.975" height="10.975" transform="translate(252.504 21.95) rotate(-90)" fill="#6e6e6e"/>
    <rect id="Rectangle_337" data-name="Rectangle 337" width="10.975" height="10.975" transform="translate(252.525 10.975) rotate(-90)" fill="#6e6e6e"/>
    <rect id="Rectangle_338" data-name="Rectangle 338" width="10.975" height="10.975" transform="translate(0 263.5) rotate(-90)" fill="#6e6e6e"/>
    <rect id="Rectangle_339" data-name="Rectangle 339" width="10.975" height="10.975" transform="translate(0 252.525) rotate(-90)" fill="#6e6e6e"/>
    <rect id="Rectangle_340" data-name="Rectangle 340" width="10.975" height="10.975" transform="translate(0 241.529) rotate(-90)" fill="#6e6e6e"/>
    <rect id="Rectangle_341" data-name="Rectangle 341" width="10.975" height="10.975" transform="translate(0 230.555) rotate(-90)" fill="#6e6e6e"/>
    <rect id="Rectangle_342" data-name="Rectangle 342" width="10.975" height="10.975" transform="translate(0 219.58) rotate(-90)" fill="#6e6e6e"/>
    <rect id="Rectangle_343" data-name="Rectangle 343" width="10.975" height="10.975" transform="translate(0 208.605) rotate(-90)" fill="#6e6e6e"/>
    <rect id="Rectangle_344" data-name="Rectangle 344" width="10.975" height="10.975" transform="translate(0 197.63) rotate(-90)" fill="#6e6e6e"/>
    <rect id="Rectangle_345" data-name="Rectangle 345" width="10.975" height="10.975" transform="translate(10.975 197.63) rotate(-90)" fill="#6e6e6e"/>
    <rect id="Rectangle_346" data-name="Rectangle 346" width="10.975" height="10.975" transform="translate(21.971 263.5) rotate(-90)" fill="#6e6e6e"/>
    <rect id="Rectangle_347" data-name="Rectangle 347" width="10.975" height="10.975" transform="translate(10.996 263.5) rotate(-90)" fill="#6e6e6e"/>
    <rect id="Rectangle_348" data-name="Rectangle 348" width="10.975" height="10.975" transform="translate(21.95 241.55) rotate(-90)" fill="#6e6e6e"/>
    <rect id="Rectangle_349" data-name="Rectangle 349" width="10.975" height="10.975" transform="translate(21.95 230.576) rotate(-90)" fill="#6e6e6e"/>
    <rect id="Rectangle_350" data-name="Rectangle 350" width="10.975" height="10.975" transform="translate(21.971 219.58) rotate(-90)" fill="#6e6e6e"/>
    <rect id="Rectangle_351" data-name="Rectangle 351" width="10.975" height="10.975" transform="translate(21.95 197.63) rotate(-90)" fill="#6e6e6e"/>
    <rect id="Rectangle_352" data-name="Rectangle 352" width="10.975" height="10.975" transform="translate(32.945 263.479) rotate(-90)" fill="#6e6e6e"/>
    <rect id="Rectangle_353" data-name="Rectangle 353" width="10.975" height="10.975" transform="translate(32.924 241.529) rotate(-90)" fill="#6e6e6e"/>
    <rect id="Rectangle_354" data-name="Rectangle 354" width="10.975" height="10.975" transform="translate(32.945 230.555) rotate(-90)" fill="#6e6e6e"/>
    <rect id="Rectangle_355" data-name="Rectangle 355" width="10.975" height="10.975" transform="translate(32.945 219.58) rotate(-90)" fill="#6e6e6e"/>
    <rect id="Rectangle_356" data-name="Rectangle 356" width="10.975" height="10.975" transform="translate(32.924 197.609) rotate(-90)" fill="#6e6e6e"/>
    <rect id="Rectangle_357" data-name="Rectangle 357" width="10.975" height="10.975" transform="translate(43.92 263.5) rotate(-90)" fill="#6e6e6e"/>
    <rect id="Rectangle_358" data-name="Rectangle 358" width="10.975" height="10.975" transform="translate(43.92 241.529) rotate(-90)" fill="#6e6e6e"/>
    <rect id="Rectangle_359" data-name="Rectangle 359" width="10.975" height="10.975" transform="translate(43.92 230.555) rotate(-90)" fill="#6e6e6e"/>
    <rect id="Rectangle_360" data-name="Rectangle 360" width="10.975" height="10.975" transform="translate(43.92 219.58) rotate(-90)" fill="#6e6e6e"/>
    <rect id="Rectangle_361" data-name="Rectangle 361" width="10.975" height="10.975" transform="translate(43.899 197.609) rotate(-90)" fill="#6e6e6e"/>
    <rect id="Rectangle_362" data-name="Rectangle 362" width="10.975" height="10.975" transform="translate(54.895 263.5) rotate(-90)" fill="#6e6e6e"/>
    <rect id="Rectangle_363" data-name="Rectangle 363" width="10.975" height="10.975" transform="translate(54.895 197.63) rotate(-90)" fill="#6e6e6e"/>
    <rect id="Rectangle_364" data-name="Rectangle 364" width="10.975" height="10.975" transform="translate(65.891 263.5) rotate(-90)" fill="#6e6e6e"/>
    <rect id="Rectangle_365" data-name="Rectangle 365" width="10.975" height="10.975" transform="translate(65.87 252.525) rotate(-90)" fill="#6e6e6e"/>
    <rect id="Rectangle_366" data-name="Rectangle 366" width="10.975" height="10.975" transform="translate(65.87 241.55) rotate(-90)" fill="#6e6e6e"/>
    <rect id="Rectangle_367" data-name="Rectangle 367" width="10.975" height="10.975" transform="translate(65.87 230.555) rotate(-90)" fill="#6e6e6e"/>
    <rect id="Rectangle_368" data-name="Rectangle 368" width="10.975" height="10.975" transform="translate(65.87 219.58) rotate(-90)" fill="#6e6e6e"/>
    <rect id="Rectangle_369" data-name="Rectangle 369" width="10.975" height="10.975" transform="translate(65.891 208.605) rotate(-90)" fill="#6e6e6e"/>
    <rect id="Rectangle_370" data-name="Rectangle 370" width="10.975" height="10.975" transform="translate(65.87 197.63) rotate(-90)" fill="#6e6e6e"/>
  </g>
</svg>
