<svg xmlns="http://www.w3.org/2000/svg" xmlns:xlink="http://www.w3.org/1999/xlink" width="1683.472" height="549.45" viewBox="0 0 1683.472 549.45">
  <defs>
    <linearGradient id="linear-gradient" x1="-0.032" y1="0.5" x2="1.028" y2="0.5" gradientUnits="objectBoundingBox">
      <stop offset="0" stop-color="#e6ca69" stop-opacity="0.059"/>
      <stop offset="1" stop-color="#e6ca69" stop-opacity="0.561"/>
    </linearGradient>
    <filter id="Rectangle_50" x="25.472" y="25.45" width="1658" height="524" filterUnits="userSpaceOnUse">
      <feOffset dy="3" input="SourceAlpha"/>
      <feGaussianBlur stdDeviation="3" result="blur"/>
      <feFlood flood-opacity="0.161"/>
      <feComposite operator="in" in2="blur"/>
      <feComposite in="SourceGraphic"/>
    </filter>
    <filter id="Path_64" x="0" y="0" width="245.474" height="245.5" filterUnits="userSpaceOnUse">
      <feOffset dy="3" input="SourceAlpha"/>
      <feGaussianBlur stdDeviation="3" result="blur-2"/>
      <feFlood flood-opacity="0.161"/>
      <feComposite operator="in" in2="blur-2"/>
      <feComposite in="SourceGraphic"/>
    </filter>
  </defs>
  <g id="scan" transform="translate(-105.528 -4009.55)">
    <g transform="matrix(1, 0, 0, 1, 105.53, 4009.55)" filter="url(#Rectangle_50)">
      <rect id="Rectangle_50-2" data-name="Rectangle 50" width="1640" height="506" rx="30" transform="translate(34.47 31.45)" fill="url(#linear-gradient)"/>
    </g>
    <g id="Layer_2" data-name="Layer 2" transform="translate(114.528 4015.55)">
      <g id="Слой_1" data-name="Слой 1">
        <rect id="Rectangle_51" data-name="Rectangle 51" width="25.684" height="42.574" transform="translate(0 184.927)" fill="#cca54d"/>
        <rect id="Rectangle_52" data-name="Rectangle 52" width="42.574" height="25.684" transform="translate(184.9 0)" fill="#cca54d"/>
        <g transform="matrix(1, 0, 0, 1, -9, -6)" filter="url(#Path_64)">
          <path id="Path_64-2" data-name="Path 64" d="M0,227.5,227.474.027,227.443,0h-80.75a16.56,16.56,0,0,0-11.71,4.85L4.849,134.984A16.555,16.555,0,0,0,0,146.689Z" transform="translate(9 6)" fill="#e6ca69"/>
        </g>
      </g>
    </g>
    <text id="جرب_الآن" data-name="جرب الآن" transform="translate(257.05 4071) rotate(-45)" fill="#6e6e6e" font-size="28" font-family="CaviarDreams, Caviar Dreams"><tspan x="-103.195" y="0"> </tspan><tspan y="0" font-family="SegoeUI, Segoe UI">جرب الآ</tspan></text>
  </g>
</svg>
