<svg xmlns="http://www.w3.org/2000/svg" width="32.701" height="32.701" viewBox="0 0 32.701 32.701">
  <g id="search-interface-symbol" transform="translate(-0.006)">
    <g id="_x34__4_" transform="translate(0.006)">
      <g id="Group_88" data-name="Group 88">
        <path id="Path_53" data-name="Path 53" d="M32.4,30.922l-8.443-8.308a13.354,13.354,0,0,0,3.569-9.075A13.651,13.651,0,0,0,13.764,0,13.65,13.65,0,0,0,.006,13.539,13.65,13.65,0,0,0,13.764,27.079a13.836,13.836,0,0,0,8.66-3.024L30.9,32.4a1.07,1.07,0,0,0,1.5,0A1.031,1.031,0,0,0,32.4,30.922ZM13.764,25A11.55,11.55,0,0,1,2.123,13.539,11.55,11.55,0,0,1,13.764,2.083,11.55,11.55,0,0,1,25.405,13.539,11.55,11.55,0,0,1,13.764,25Z" transform="translate(-0.006 0)" fill="#6e6e6e"/>
      </g>
    </g>
  </g>
</svg>
