<svg xmlns="http://www.w3.org/2000/svg" width="28.769" height="33.947" viewBox="0 0 28.769 33.947">
  <g id="shopping-bag" transform="translate(-15.359)">
    <g id="Group_90" data-name="Group 90" transform="translate(25.68)">
      <g id="Group_89" data-name="Group 89">
        <path id="Path_54" data-name="Path 54" d="M85.5,4.195A4.891,4.891,0,0,0,76.7,2.009a.575.575,0,1,0,.929.679,3.741,3.741,0,0,1,6.725,1.67.576.576,0,0,0,.569.494.616.616,0,0,0,.082-.006A.576.576,0,0,0,85.5,4.195Z" transform="translate(-76.593)" fill="#6e6e6e"/>
      </g>
    </g>
    <g id="Group_92" data-name="Group 92" transform="translate(16.509 7.48)">
      <g id="Group_91" data-name="Group 91">
        <path id="Path_55" data-name="Path 55" d="M48.57,47.528l-1.726-2.877a.575.575,0,0,0-.493-.279H44.7a.575.575,0,1,0,0,1.151h1.328l1.036,1.726H23.776l1.036-1.726h.609a.575.575,0,0,0,0-1.151h-.935a.575.575,0,0,0-.493.279l-1.726,2.877a.576.576,0,0,0,.493.872H48.077a.576.576,0,0,0,.493-.872Z" transform="translate(-22.185 -44.372)" fill="#6e6e6e"/>
      </g>
    </g>
    <g id="Group_94" data-name="Group 94" transform="translate(30.527 3.224)">
      <g id="Group_93" data-name="Group 93">
        <path id="Path_56" data-name="Path 56" d="M114.843,21.233a.574.574,0,0,0-.358-.257l-7.844-1.834a.575.575,0,0,0-.691.429l-.592,2.528a.575.575,0,0,0,1.12.262l.461-1.968,6.723,1.573-1.056,4.517a.575.575,0,0,0,.429.691.582.582,0,0,0,.132.015.575.575,0,0,0,.559-.444l1.188-5.077A.573.573,0,0,0,114.843,21.233Z" transform="translate(-105.343 -19.126)" fill="#6e6e6e"/>
      </g>
    </g>
    <g id="Group_96" data-name="Group 96" transform="translate(18.753 1.749)">
      <g id="Group_95" data-name="Group 95">
        <path id="Path_57" data-name="Path 57" d="M46.788,15.316l-.524-4.434a.576.576,0,0,0-.639-.5L36,11.515a.575.575,0,0,0-.5.639l.874,7.4a.576.576,0,0,0,.571.508.628.628,0,0,0,.068,0,.576.576,0,0,0,.5-.639l-.807-6.825,8.481-1,.456,3.863a.575.575,0,0,0,1.143-.135Z" transform="translate(-35.494 -10.374)" fill="#6e6e6e"/>
      </g>
    </g>
    <g id="Group_98" data-name="Group 98" transform="translate(23.052 5.524)">
      <g id="Group_97" data-name="Group 97" transform="translate(0)">
        <path id="Path_58" data-name="Path 58" d="M72.543,37.959,71.4,33.21a.575.575,0,0,0-.694-.425l-9.269,2.229a.575.575,0,0,0-.425.694l.571,2.374a.575.575,0,1,0,1.119-.269L62.266,36l8.15-1.96,1.008,4.19a.576.576,0,0,0,1.119-.269Z" transform="translate(-60.997 -32.769)" fill="#6e6e6e"/>
      </g>
    </g>
    <g id="Group_100" data-name="Group 100" transform="translate(15.359 10.357)">
      <g id="Group_99" data-name="Group 99">
        <path id="Path_59" data-name="Path 59" d="M42.976,61.987a.576.576,0,0,0-.575-.546H17.085a.575.575,0,0,0-.575.546L15.359,84.426a.575.575,0,0,0,.575.6H43.552a.575.575,0,0,0,.575-.6ZM16.539,83.88l1.092-21.289H41.854L42.946,83.88Z" transform="translate(-15.359 -61.441)" fill="#6e6e6e"/>
      </g>
    </g>
    <g id="Group_102" data-name="Group 102" transform="translate(32.332 12.658)">
      <g id="Group_101" data-name="Group 101">
        <path id="Path_60" data-name="Path 60" d="M117.778,75.093a1.726,1.726,0,1,0,1.726,1.726A1.728,1.728,0,0,0,117.778,75.093Zm0,2.3a.575.575,0,1,1,.575-.575A.576.576,0,0,1,117.778,77.395Z" transform="translate(-116.052 -75.093)" fill="#6e6e6e"/>
      </g>
    </g>
    <g id="Group_104" data-name="Group 104" transform="translate(23.701 12.658)">
      <g id="Group_103" data-name="Group 103" transform="translate(0)">
        <path id="Path_61" data-name="Path 61" d="M66.578,75.093A1.726,1.726,0,1,0,68.3,76.819,1.728,1.728,0,0,0,66.578,75.093Zm0,2.3a.575.575,0,1,1,.575-.575A.576.576,0,0,1,66.578,77.395Z" transform="translate(-64.852 -75.093)" fill="#6e6e6e"/>
      </g>
    </g>
    <g id="Group_106" data-name="Group 106" transform="translate(24.852 14.384)">
      <g id="Group_105" data-name="Group 105">
        <path id="Path_62" data-name="Path 62" d="M80.885,85.333H80.84a.576.576,0,0,0-.575.575.569.569,0,0,0,.044.222v2.943a3.74,3.74,0,1,1-7.48,0V85.908a.575.575,0,1,0-1.151,0v3.164a4.891,4.891,0,1,0,9.781,0V85.908A.576.576,0,0,0,80.885,85.333Z" transform="translate(-71.679 -85.333)" fill="#6e6e6e"/>
      </g>
    </g>
  </g>
</svg>
