<?xml version="1.0" encoding="UTF-8" standalone="no"?>
<svg
   xmlns:dc="http://purl.org/dc/elements/1.1/"
   xmlns:cc="http://creativecommons.org/ns#"
   xmlns:rdf="http://www.w3.org/1999/02/22-rdf-syntax-ns#"
   xmlns:svg="http://www.w3.org/2000/svg"
   xmlns="http://www.w3.org/2000/svg"
   xmlns:xlink="http://www.w3.org/1999/xlink"
   xmlns:sodipodi="http://sodipodi.sourceforge.net/DTD/sodipodi-0.dtd"
   xmlns:inkscape="http://www.inkscape.org/namespaces/inkscape"
   width="373.803"
   height="156.031"
   viewBox="0 0 373.803 156.031"
   version="1.1"
   id="svg34"
   sodipodi:docname="slogan_ar.svg"
   inkscape:version="1.0.2 (e86c870879, 2021-01-15)"
   inkscape:export-filename="/home/alaa/Desktop/hero/public/img/slogan.png"
   inkscape:export-xdpi="96"
   inkscape:export-ydpi="96">
  <metadata
     id="metadata38">
    <rdf:RDF>
      <cc:Work
         rdf:about="">
        <dc:format>image/svg+xml</dc:format>
        <dc:type
           rdf:resource="http://purl.org/dc/dcmitype/StillImage" />
        <dc:title />
      </cc:Work>
    </rdf:RDF>
  </metadata>
  <sodipodi:namedview
     pagecolor="#ffffff"
     bordercolor="#666666"
     borderopacity="1"
     objecttolerance="10"
     gridtolerance="10"
     guidetolerance="10"
     inkscape:pageopacity="0"
     inkscape:pageshadow="2"
     inkscape:window-width="1366"
     inkscape:window-height="704"
     id="namedview36"
     showgrid="false"
     inkscape:zoom="2.027806"
     inkscape:cx="186.9015"
     inkscape:cy="77.522359"
     inkscape:window-x="0"
     inkscape:window-y="0"
     inkscape:window-maximized="1"
     inkscape:current-layer="slogan"
     inkscape:document-rotation="0" />
  <defs
     id="defs10">
    <linearGradient
       id="linear-gradient"
       y1="0.5"
       x2="1"
       y2="0.5"
       gradientUnits="objectBoundingBox">
      <stop
         offset="0"
         stop-color="#b78a38"
         id="stop2" />
      <stop
         offset="0.51"
         stop-color="#fce984"
         id="stop4" />
      <stop
         offset="1"
         stop-color="#b78a38"
         id="stop6" />
    </linearGradient>
    <linearGradient
       id="linear-gradient-2"
       x1="17.80309"
       y1="53.792746"
       x2="125.39366"
       y2="53.792746"
       xlink:href="#linear-gradient"
       gradientTransform="scale(0.92037348,1.0865154)"
       gradientUnits="userSpaceOnUse" />
    <linearGradient
       inkscape:collect="always"
       xlink:href="#linear-gradient"
       id="linearGradient34"
       gradientUnits="userSpaceOnUse"
       y1="124.9431"
       x2="195.82307"
       y2="124.9431"
       gradientTransform="scale(0.90701799,1.102514)"
       x1="110.79163" />
  </defs>
  <g
     id="slogan"
     transform="matrix(1,0,0,0.99702916,-133.197,-48.265193)">
    <text
       id="Express_how_you_feel"
       data-name="Express how you feel"
       transform="matrix(0.77987295,-0.00115253,0.04472666,1.282194,0,0)"
       fill="#6e6e6e"
       font-size="51.8662px"
       font-family="BrushScriptMT, 'Brush Script MT'"
       x="594.25165"
       y="106.55118"
       style="font-size:31.9742px;fill:#6e6e6e;fill-opacity:1;stroke-width:1.08435"
       inkscape:export-xdpi="96"
       inkscape:export-ydpi="96"
       inkscape:transform-center-x="0.12555657"
       inkscape:transform-center-y="0.4393449"><tspan
         x="354.91446"
         y="106.55118"
         id="tspan12"
         style="font-style:normal;font-variant:normal;font-weight:bold;font-stretch:normal;font-size:31.9742px;font-family:Tajawal;-inkscape-font-specification:'Tajawal Bold';fill:#6e6e6e;fill-opacity:1;stroke-width:1.08435">عبر عن شعورك بحب</tspan></text>
    <g
       id="logo"
       transform="translate(133.201,48.409)">
      <g
         id="Layer_1"
         data-name="Layer 1"
         transform="translate(-0.004)">
        <path
           id="Path_121"
           data-name="Path 121"
           d="m 14.572,196.187 a 7.667,7.667 0 0 1 -6.5,3.1 7.566,7.566 0 0 1 -6.172,-2.72 8.383,8.383 0 0 1 -1.9,-5.532 7.864,7.864 0 0 1 8.041,-8.041 7.445,7.445 0 0 1 6.533,3.244 l -1.172,0.944 a 6.3,6.3 0 0 0 -5.335,-2.674 6.438,6.438 0 0 0 -3.251,0.868 6.128,6.128 0 0 0 -2.4,2.4 6.882,6.882 0 0 0 -0.849,3.4 6.413,6.413 0 0 0 6.593,6.624 6.558,6.558 0 0 0 5.24,-2.535 z"
           transform="translate(0.004,-67.036)"
           fill="#b78a38" />
        <path
           id="Path_122"
           data-name="Path 122"
           d="m 38.024,201.287 h -1.413 v -1.958 a 5.43,5.43 0 0 1 -4.436,2.275 5.259,5.259 0 0 1 -4.03,-1.8 6.089,6.089 0 0 1 -1.6,-4.277 5.994,5.994 0 0 1 1.654,-4.245 5.329,5.329 0 0 1 4.03,-1.762 5.069,5.069 0 0 1 4.379,2.408 v -2.1 h 1.413 z m -1.318,-5.7 a 4.714,4.714 0 0 0 -1.267,-3.32 4.252,4.252 0 0 0 -6.881,0.963 4.816,4.816 0 0 0 0,4.638 4.436,4.436 0 0 0 1.6,1.717 4.03,4.03 0 0 0 2.154,0.634 4.328,4.328 0 0 0 2.205,-0.634 4.176,4.176 0 0 0 1.6,-1.654 4.885,4.885 0 0 0 0.589,-2.326 z"
           transform="translate(-9.723,-69.43)"
           fill="#b78a38" />
        <path
           id="Path_123"
           data-name="Path 123"
           d="m 60.414,198.9 h -1.406 v -1.96 a 5.443,5.443 0 0 1 -4.436,2.275 5.259,5.259 0 0 1 -4.03,-1.8 6.089,6.089 0 0 1 -1.6,-4.277 5.994,5.994 0 0 1 1.654,-4.245 5.329,5.329 0 0 1 4.03,-1.762 5.069,5.069 0 0 1 4.385,2.408 V 183 h 1.407 z M 59.1,193.2 a 4.74,4.74 0 0 0 -1.248,-3.3 4.081,4.081 0 0 0 -3.118,-1.343 4.03,4.03 0 0 0 -3.8,2.306 4.816,4.816 0 0 0 0,4.638 4.436,4.436 0 0 0 1.6,1.717 4.03,4.03 0 0 0 2.154,0.634 4.328,4.328 0 0 0 2.205,-0.634 4.176,4.176 0 0 0 1.6,-1.654 4.885,4.885 0 0 0 0.627,-2.345 z"
           transform="translate(-17.925,-67.041)"
           fill="#b78a38" />
        <path
           id="Path_124"
           data-name="Path 124"
           d="m 82.646,195.633 h -9.9 a 4.9,4.9 0 0 0 1.153,3.213 3.8,3.8 0 0 0 2.991,1.35 4.265,4.265 0 0 0 2.984,-1.115 6.844,6.844 0 0 0 1.2,-1.635 l 1.2,0.634 a 5.886,5.886 0 0 1 -3.092,3.061 5.7,5.7 0 0 1 -2.173,0.393 5.424,5.424 0 0 1 -4.106,-1.711 6,6 0 0 1 -1.628,-4.3 6.336,6.336 0 0 1 1.267,-3.9 5.2,5.2 0 0 1 4.366,-2.173 5.348,5.348 0 0 1 4.518,2.249 6.489,6.489 0 0 1 1.22,3.934 z m -1.552,-1.267 a 4.227,4.227 0 0 0 -2.256,-3.01 4.3,4.3 0 0 0 -1.9,-0.431 3.954,3.954 0 0 0 -2.788,1.084 4.974,4.974 0 0 0 -1.267,2.357 z"
           transform="translate(-26.109,-69.403)"
           fill="#b78a38" />
        <path
           id="Path_125"
           data-name="Path 125"
           d="m 104.074,201.287 h -1.407 v -1.958 a 5.437,5.437 0 0 1 -4.436,2.275 5.234,5.234 0 0 1 -4.024,-1.8 6.1,6.1 0 0 1 -1.61,-4.277 5.994,5.994 0 0 1 1.654,-4.245 5.342,5.342 0 0 1 4.036,-1.762 5.069,5.069 0 0 1 4.379,2.408 v -2.1 h 1.407 z m -1.318,-5.7 a 4.74,4.74 0 0 0 -1.236,-3.32 4.258,4.258 0 0 0 -6.888,0.963 4.816,4.816 0 0 0 0,4.638 4.436,4.436 0 0 0 1.6,1.717 4.055,4.055 0 0 0 2.161,0.634 4.283,4.283 0 0 0 2.2,-0.634 4.15,4.15 0 0 0 1.6,-1.654 4.879,4.879 0 0 0 0.558,-2.325 z"
           transform="translate(-33.92,-69.43)"
           fill="#b78a38" />
        <path
           id="Path_126"
           data-name="Path 126"
           d="m 125.091,195.614 a 10.577,10.577 0 0 1 -0.355,3.08 4.182,4.182 0 0 1 -1.768,2.376 4.9,4.9 0 0 1 -2.687,0.691 4.245,4.245 0 0 1 -4.29,-2.592 9.435,9.435 0 0 1 -0.539,-3.663 V 190 h 1.438 v 5.354 a 11.552,11.552 0 0 0 0.2,2.706 2.965,2.965 0 0 0 1.21,1.7 3.726,3.726 0 0 0 3.91,0 2.959,2.959 0 0 0 1.21,-1.622 11.73,11.73 0 0 0 0.209,-2.82 V 190 h 1.457 z"
           transform="translate(-42.289,-69.606)"
           fill="#b78a38" />
        <path
           id="Path_127"
           data-name="Path 127"
           d="m 13.322,224.051 a 4.968,4.968 0 0 1 -0.716,2.585 4.6,4.6 0 0 1 -1.952,1.812 7.23,7.23 0 0 1 -3.244,0.6 H 2.62 v -17.113 h 2.687 a 14.136,14.136 0 0 1 3.422,0.3 4.613,4.613 0 0 1 2.408,1.476 4.017,4.017 0 0 1 -0.817,5.9 4.649,4.649 0 0 1 3.002,4.44 z m -4.436,-7.274 q 0,-1.749 -2.2,-1.749 H 5.877 v 3.605 h 0.71 c 1.546,0 2.326,-0.621 2.326,-1.857 z m 1.2,7.167 q 0,-2.383 -3.561,-2.389 H 5.877 v 4.4 h 0.786 a 6.654,6.654 0 0 0 2.262,-0.285 1.692,1.692 0 0 0 1.185,-1.724 z"
           transform="translate(-0.957,-77.639)"
           fill="#b78a38" />
        <path
           id="Path_128"
           data-name="Path 128"
           d="m 36.169,225.119 a 6.679,6.679 0 0 1 -0.887,3.346 6.336,6.336 0 0 1 -2.421,2.44 6.755,6.755 0 0 1 -3.39,0.874 6.337,6.337 0 0 1 -4.664,-1.9 6.736,6.736 0 0 1 0.266,-9.651 6.336,6.336 0 0 1 4.385,-1.717 6.78,6.78 0 0 1 3.365,0.887 6.387,6.387 0 0 1 2.459,2.433 6.552,6.552 0 0 1 0.887,3.289 z m -3.219,0 a 3.745,3.745 0 0 0 -0.944,-2.611 3.534,3.534 0 0 0 -5.038,0.032 3.719,3.719 0 0 0 -0.893,2.617 3.764,3.764 0 0 0 0.919,2.611 3.169,3.169 0 0 0 2.535,1.077 3.206,3.206 0 0 0 2.535,-1.077 3.758,3.758 0 0 0 0.887,-2.611 z"
           transform="translate(-8.387,-80.05)"
           fill="#b78a38" />
        <path
           id="Path_129"
           data-name="Path 129"
           d="m 59.007,224.342 a 13.158,13.158 0 0 1 -0.526,4.537 5,5 0 0 1 -5.069,3.08 q -4.062,0 -5.177,-3.523 a 15.892,15.892 0 0 1 -0.374,-4.188 V 219 h 3.251 v 6.089 a 12.251,12.251 0 0 0 0.1,1.9 2.427,2.427 0 0 0 0.925,1.616 2.205,2.205 0 0 0 1.318,0.38 2.1,2.1 0 0 0 2.154,-1.483 8.535,8.535 0 0 0 0.2,-2.338 V 219 h 3.168 z"
           transform="translate(-17.526,-80.23)"
           fill="#b78a38" />
        <path
           id="Path_130"
           data-name="Path 130"
           d="m 75.192,219.028 h -1.9 v 9.91 h -3.169 v -9.91 h -1.6 V 216.3 h 1.628 v -4.66 h 3.168 v 4.66 h 1.9 z"
           transform="translate(-25.099,-77.534)"
           fill="#b78a38" />
        <path
           id="Path_131"
           data-name="Path 131"
           d="m 84.576,212.812 a 1.958,1.958 0 0 1 -0.576,1.457 1.9,1.9 0 0 1 -1.419,0.6 1.958,1.958 0 0 1 -1.451,-0.634 2.053,2.053 0 0 1 -0.589,-1.483 2.015,2.015 0 0 1 3.459,-1.385 1.99,1.99 0 0 1 0.576,1.445 z M 84.158,228.6 H 80.99 v -12.62 h 3.168 z"
           transform="translate(-29.503,-77.21)"
           fill="#b78a38" />
        <path
           id="Path_132"
           data-name="Path 132"
           d="M 102.936,236.066 H 99.768 V 230.1 a 5.57,5.57 0 0 1 -8.237,-0.361 6.881,6.881 0 0 1 -1.692,-4.6 7.014,7.014 0 0 1 1.584,-4.638 5.582,5.582 0 0 1 8.339,-0.317 v -1.381 h 3.168 z m -3.023,-10.975 a 3.751,3.751 0 0 0 -0.957,-2.636 3.213,3.213 0 0 0 -2.535,-1.052 3.168,3.168 0 0 0 -2.535,1.09 4.155,4.155 0 0 0 0.013,5.228 3.168,3.168 0 0 0 2.535,1.128 3.232,3.232 0 0 0 2.535,-1.1 3.922,3.922 0 0 0 0.944,-2.655 z"
           transform="translate(-32.908,-80.035)"
           fill="#b78a38" />
        <path
           id="Path_133"
           data-name="Path 133"
           d="m 126.647,224.342 a 13.158,13.158 0 0 1 -0.526,4.537 5,5 0 0 1 -5.069,3.08 q -4.062,0 -5.177,-3.523 a 15.892,15.892 0 0 1 -0.374,-4.188 V 219 h 3.225 v 6.089 a 12.247,12.247 0 0 0 0.1,1.9 2.427,2.427 0 0 0 0.925,1.616 2.205,2.205 0 0 0 1.318,0.38 2.1,2.1 0 0 0 2.154,-1.483 8.536,8.536 0 0 0 0.2,-2.338 V 219 h 3.168 z"
           transform="translate(-42.305,-80.23)"
           fill="#b78a38" />
        <path
           id="Path_134"
           data-name="Path 134"
           d="m 150.467,225.458 v 0.634 h -10.2 a 3.308,3.308 0 0 0 1.21,2.161 3.764,3.764 0 0 0 2.414,0.773 4.246,4.246 0 0 0 3.054,-1.236 l 2.668,1.267 a 6.539,6.539 0 0 1 -5.7,2.775 6.653,6.653 0 0 1 -4.816,-1.838 6.337,6.337 0 0 1 -1.9,-4.746 6.641,6.641 0 0 1 1.844,-4.79 6.2,6.2 0 0 1 4.7,-1.9 6.508,6.508 0 0 1 4.86,1.9 6.748,6.748 0 0 1 1.863,5 z m -3.206,-1.9 a 3.092,3.092 0 0 0 -1.267,-1.73 3.681,3.681 0 0 0 -2.1,-0.634 3.8,3.8 0 0 0 -2.319,0.735 4.081,4.081 0 0 0 -1.16,1.622 z"
           transform="translate(-50.258,-80.066)"
           fill="#b78a38" />
        <path
           id="Path_135"
           data-name="Path 135"
           d="m 176.091,149.96 c -2.053,-6.229 -5.792,-10.918 -11.887,-13.376 a 3.321,3.321 0 0 1 -0.7,-0.564 c 1.337,-0.855 2.6,-1.559 3.751,-2.414 A 18.046,18.046 0 0 0 174.289,123.087 25.145,25.145 0 0 0 161.172,94.433 38.877,38.877 0 0 0 144.1,90.9 c -13.94,-0.051 -27.836,0 -41.758,0 h -1.852 v 26.227 h 16.678 v -10.015 a 3.358,3.358 0 0 1 0.748,-0.241 c 9.106,0 18.211,-0.114 27.317,0.076 a 12.728,12.728 0 0 1 10.645,5.386 c 4.131,5.842 1.939,12.908 -4.74,15.106 -1.781,0.589 -3.663,0.843 -5.8,1.324 0,3.6 -0.044,7.2 0,10.8 0.063,4.379 -0.988,3.986 4.1,5.361 a 16.62,16.62 0 0 1 8.719,5.31 c 4.062,4.847 3.232,11.672 -2.142,14.815 a 26.7,26.7 0 0 1 -8.237,2.807 58.741,58.741 0 0 1 -8.237,0.57 v 16.144 c 7.135,0.209 14.061,-0.089 20.771,-2.313 14.005,-4.645 20.493,-17.951 15.779,-32.297 z"
           transform="translate(-36.812,-33.291)"
           fill="url(#linear-gradient)"
           style="fill:url(#linearGradient34)" />
        <path
           id="Path_136"
           data-name="Path 136"
           d="m 100.976,81.373 -0.773,1.533 A 38.222,38.222 0 0 1 86.6,97.95 36.321,36.321 0 0 1 66.9,103.488 36.118,36.118 0 0 1 40.515,92.608 36.615,36.615 0 0 1 29.678,66.267 36.752,36.752 0 0 1 40.45,39.867 36.239,36.239 0 0 1 60.327,29.5 l -11.481,13.778 7.781,-3.054 2.636,7.655 7.477,-18.928 h 0.792 l 7.445,18.149 2.1,-6.279 9.5,3.669 -12.683,-14.924 a 34.553,34.553 0 0 1 12.706,5.025 37.721,37.721 0 0 1 13.6,14.954 l 0.779,1.514 h 14.422 l -1.6,-3.859 A 50.977,50.977 0 0 0 95.527,24.472 50.283,50.283 0 0 0 90.984,21.7 c 5.3,-4.074 5.88,-19.574 0.843,-21.449 -4.835,-1.8 -16.545,6.47 -20.277,9.251 A 4.081,4.081 0 0 0 68.23,7.791 h -0.583 a 5.209,5.209 0 0 0 -4.1,1.99 c -3.27,-2.452 -15.658,-11.406 -20.67,-9.5 -5.012,1.906 -4.486,16.7 0.513,21.158 A 51.51,51.51 0 0 0 31.2,30.561 48.852,48.852 0 0 0 16.39,66.267 49.217,49.217 0 0 0 31.2,102.081 48.592,48.592 0 0 0 66.9,116.89 49.254,49.254 0 0 0 95.522,107.968 50.4,50.4 0 0 0 113.809,85.239 l 1.6,-3.865 z M 71.144,15.689 71.385,15.942 70.96,15.9 a 2.052,2.052 0 0 0 0.184,-0.211 z"
           transform="translate(-6.002)"
           fill="url(#linear-gradient-2)"
           style="fill:url(#linear-gradient-2)" />
      </g>
    </g>
    <text
       xml:space="preserve"
       style="font-style:normal;font-weight:normal;font-size:40px;line-height:1.25;font-family:sans-serif;fill:#000000;fill-opacity:1;stroke:none"
       x="329.86188"
       y="67.099022"
       id="text42"><tspan
         sodipodi:role="line"
         id="tspan40"
         x="329.86188"
         y="67.099022" /></text>
    <text
       xml:space="preserve"
       style="font-style:normal;font-weight:normal;font-size:40.0596px;line-height:1.25;font-family:sans-serif;fill:#000000;fill-opacity:1;stroke:none;stroke-width:1.00149"
       x="395.94766"
       y="19.51586"
       id="text41"
       transform="scale(0.99851347,1.0014887)"><tspan
         sodipodi:role="line"
         id="tspan39"
         x="395.94766"
         y="19.51586"
         style="stroke-width:1.00149" /></text>
    <path
       style="fill:#737373;stroke-width:0.920971"
       d=""
       id="path37"
       transform="matrix(1,0,0,1.0029797,133.197,48.409008)" />
    <path
       style="fill:#737373;stroke-width:0.920971"
       d=""
       id="path39"
       transform="matrix(1,0,0,1.0029797,133.197,48.409008)" />
  </g>
</svg>
