<?xml version="1.0" encoding="UTF-8" standalone="no"?>
<svg
   xmlns:dc="http://purl.org/dc/elements/1.1/"
   xmlns:cc="http://creativecommons.org/ns#"
   xmlns:rdf="http://www.w3.org/1999/02/22-rdf-syntax-ns#"
   xmlns:svg="http://www.w3.org/2000/svg"
   xmlns="http://www.w3.org/2000/svg"
   xmlns:sodipodi="http://sodipodi.sourceforge.net/DTD/sodipodi-0.dtd"
   xmlns:inkscape="http://www.inkscape.org/namespaces/inkscape"
   width="851"
   height="202"
   viewBox="0 0 851 202"
   version="1.1"
   id="svg283"
   sodipodi:docname="top-circles.svg"
   inkscape:version="1.0.2 (e86c870879, 2021-01-15)">
  <metadata
     id="metadata287">
    <rdf:RDF>
      <cc:Work
         rdf:about="">
        <dc:format>image/svg+xml</dc:format>
        <dc:type
           rdf:resource="http://purl.org/dc/dcmitype/StillImage" />
      </cc:Work>
    </rdf:RDF>
  </metadata>
  <sodipodi:namedview
     pagecolor="#ffffff"
     bordercolor="#666666"
     borderopacity="1"
     objecttolerance="10"
     gridtolerance="10"
     guidetolerance="10"
     inkscape:pageopacity="0"
     inkscape:pageshadow="2"
     inkscape:window-width="1366"
     inkscape:window-height="704"
     id="namedview285"
     showgrid="false"
     inkscape:zoom="0.95388788"
     inkscape:cx="518.84382"
     inkscape:cy="144.98493"
     inkscape:window-x="0"
     inkscape:window-y="0"
     inkscape:window-maximized="1"
     inkscape:current-layer="Group_204" />
  <defs
     id="defs112">
    <filter
       id="Ellipse_37"
       x="0"
       y="0"
       width="102"
       height="102"
       filterUnits="userSpaceOnUse">
      <feOffset
         dy="3"
         input="SourceAlpha"
         id="feOffset2" />
      <feGaussianBlur
         stdDeviation="3"
         result="blur"
         id="feGaussianBlur4" />
      <feFlood
         flood-opacity="0.161"
         id="feFlood6" />
      <feComposite
         operator="in"
         in2="blur"
         id="feComposite8"
         result="result1" />
      <feComposite
         in="SourceGraphic"
         in2="result1"
         id="feComposite10" />
    </filter>
    <filter
       id="Ellipse_38"
       x="5"
       y="6"
       width="91"
       height="91"
       filterUnits="userSpaceOnUse">
      <feOffset
         dy="3"
         input="SourceAlpha"
         id="feOffset13" />
      <feGaussianBlur
         stdDeviation="3"
         result="blur-2"
         id="feGaussianBlur15" />
      <feFlood
         flood-opacity="0.161"
         id="feFlood17" />
      <feComposite
         operator="in"
         in2="blur-2"
         id="feComposite19"
         result="result1" />
      <feComposite
         in="SourceGraphic"
         in2="result1"
         id="feComposite21" />
    </filter>
    <filter
       id="Ellipse_35"
       x="197"
       y="74"
       width="102"
       height="102"
       filterUnits="userSpaceOnUse">
      <feOffset
         dy="3"
         input="SourceAlpha"
         id="feOffset24" />
      <feGaussianBlur
         stdDeviation="3"
         result="blur-3"
         id="feGaussianBlur26" />
      <feFlood
         flood-opacity="0.161"
         id="feFlood28" />
      <feComposite
         operator="in"
         in2="blur-3"
         id="feComposite30"
         result="result1" />
      <feComposite
         in="SourceGraphic"
         in2="result1"
         id="feComposite32" />
    </filter>
    <filter
       id="Ellipse_36"
       x="202"
       y="80"
       width="91"
       height="91"
       filterUnits="userSpaceOnUse">
      <feOffset
         dy="3"
         input="SourceAlpha"
         id="feOffset35" />
      <feGaussianBlur
         stdDeviation="3"
         result="blur-4"
         id="feGaussianBlur37" />
      <feFlood
         flood-opacity="0.161"
         id="feFlood39" />
      <feComposite
         operator="in"
         in2="blur-4"
         id="feComposite41"
         result="result1" />
      <feComposite
         in="SourceGraphic"
         in2="result1"
         id="feComposite43" />
    </filter>
    <filter
       id="Ellipse_33"
       x="381"
       y="4"
       width="102"
       height="102"
       filterUnits="userSpaceOnUse">
      <feOffset
         dy="3"
         input="SourceAlpha"
         id="feOffset46" />
      <feGaussianBlur
         stdDeviation="3"
         result="blur-5"
         id="feGaussianBlur48" />
      <feFlood
         flood-opacity="0.161"
         id="feFlood50" />
      <feComposite
         operator="in"
         in2="blur-5"
         id="feComposite52"
         result="result1" />
      <feComposite
         in="SourceGraphic"
         in2="result1"
         id="feComposite54" />
    </filter>
    <filter
       id="Ellipse_34"
       x="386"
       y="10"
       width="91"
       height="91"
       filterUnits="userSpaceOnUse">
      <feOffset
         dy="3"
         input="SourceAlpha"
         id="feOffset57" />
      <feGaussianBlur
         stdDeviation="3"
         result="blur-6"
         id="feGaussianBlur59" />
      <feFlood
         flood-opacity="0.161"
         id="feFlood61" />
      <feComposite
         operator="in"
         in2="blur-6"
         id="feComposite63"
         result="result1" />
      <feComposite
         in="SourceGraphic"
         in2="result1"
         id="feComposite65" />
    </filter>
    <filter
       id="Ellipse_31"
       x="565"
       y="74"
       width="102"
       height="102"
       filterUnits="userSpaceOnUse">
      <feOffset
         dy="3"
         input="SourceAlpha"
         id="feOffset68" />
      <feGaussianBlur
         stdDeviation="3"
         result="blur-7"
         id="feGaussianBlur70" />
      <feFlood
         flood-opacity="0.161"
         id="feFlood72" />
      <feComposite
         operator="in"
         in2="blur-7"
         id="feComposite74"
         result="result1" />
      <feComposite
         in="SourceGraphic"
         in2="result1"
         id="feComposite76" />
    </filter>
    <filter
       id="Ellipse_32"
       x="570"
       y="80"
       width="91"
       height="91"
       filterUnits="userSpaceOnUse">
      <feOffset
         dy="3"
         input="SourceAlpha"
         id="feOffset79" />
      <feGaussianBlur
         stdDeviation="3"
         result="blur-8"
         id="feGaussianBlur81" />
      <feFlood
         flood-opacity="0.161"
         id="feFlood83" />
      <feComposite
         operator="in"
         in2="blur-8"
         id="feComposite85"
         result="result1" />
      <feComposite
         in="SourceGraphic"
         in2="result1"
         id="feComposite87" />
    </filter>
    <filter
       id="Ellipse_21"
       x="749"
       y="4"
       width="102"
       height="102"
       filterUnits="userSpaceOnUse">
      <feOffset
         dy="3"
         input="SourceAlpha"
         id="feOffset90" />
      <feGaussianBlur
         stdDeviation="3"
         result="blur-9"
         id="feGaussianBlur92" />
      <feFlood
         flood-opacity="0.161"
         id="feFlood94" />
      <feComposite
         operator="in"
         in2="blur-9"
         id="feComposite96"
         result="result1" />
      <feComposite
         in="SourceGraphic"
         in2="result1"
         id="feComposite98" />
    </filter>
    <filter
       id="Ellipse_22"
       x="754"
       y="10"
       width="91"
       height="91"
       filterUnits="userSpaceOnUse">
      <feOffset
         dy="3"
         input="SourceAlpha"
         id="feOffset101" />
      <feGaussianBlur
         stdDeviation="3"
         result="blur-10"
         id="feGaussianBlur103" />
      <feFlood
         flood-opacity="0.161"
         id="feFlood105" />
      <feComposite
         operator="in"
         in2="blur-10"
         id="feComposite107"
         result="result1" />
      <feComposite
         in="SourceGraphic"
         in2="result1"
         id="feComposite109" />
    </filter>
  </defs>
  <g
     id="Group_204"
     data-name="Group 204"
     transform="matrix(-1,0,0,1,1765.84,-473)">
    <g
       transform="translate(914.84,473)"
       filter="url(#Ellipse_37)"
       id="g115">
      <circle
         id="Ellipse_37-2"
         data-name="Ellipse 37"
         cx="42"
         cy="42"
         r="42"
         transform="translate(9,6)"
         fill="#cca54d" />
    </g>
    <g
       transform="translate(914.84,473)"
       filter="url(#Ellipse_38)"
       id="g118">
      <circle
         id="Ellipse_38-2"
         data-name="Ellipse 38"
         cx="36.5"
         cy="36.5"
         r="36.5"
         transform="translate(14,12)"
         fill="#f1f0ec" />
    </g>
    <g
       transform="translate(914.84,473)"
       filter="url(#Ellipse_35)"
       id="g121">
      <circle
         id="Ellipse_35-2"
         data-name="Ellipse 35"
         cx="42"
         cy="42"
         r="42"
         transform="translate(206,80)"
         fill="#cca54d" />
    </g>
    <g
       transform="translate(914.84,473)"
       filter="url(#Ellipse_36)"
       id="g124">
      <circle
         id="Ellipse_36-2"
         data-name="Ellipse 36"
         cx="36.5"
         cy="36.5"
         r="36.5"
         transform="translate(211,86)"
         fill="#f1f0ec" />
    </g>
    <g
       transform="translate(914.84,473)"
       filter="url(#Ellipse_33)"
       id="g127">
      <circle
         id="Ellipse_33-2"
         data-name="Ellipse 33"
         cx="42"
         cy="42"
         r="42"
         transform="translate(390,10)"
         fill="#cca54d" />
    </g>
    <g
       transform="translate(914.84,473)"
       filter="url(#Ellipse_34)"
       id="g130">
      <circle
         id="Ellipse_34-2"
         data-name="Ellipse 34"
         cx="36.5"
         cy="36.5"
         r="36.5"
         transform="translate(395,16)"
         fill="#f1f0ec" />
    </g>
    <g
       transform="translate(914.84,473)"
       filter="url(#Ellipse_31)"
       id="g133">
      <circle
         id="Ellipse_31-2"
         data-name="Ellipse 31"
         cx="42"
         cy="42"
         r="42"
         transform="translate(574,80)"
         fill="#cca54d" />
    </g>
    <g
       transform="translate(914.84,473)"
       filter="url(#Ellipse_32)"
       id="g136">
      <circle
         id="Ellipse_32-2"
         data-name="Ellipse 32"
         cx="36.5"
         cy="36.5"
         r="36.5"
         transform="translate(579,86)"
         fill="#f1f0ec" />
    </g>
    <g
       transform="translate(914.84,473)"
       filter="url(#Ellipse_21)"
       id="g139">
      <circle
         id="Ellipse_21-2"
         data-name="Ellipse 21"
         cx="42"
         cy="42"
         r="42"
         transform="translate(758,10)"
         fill="#cca54d" />
    </g>
    <g
       transform="translate(914.84,473)"
       filter="url(#Ellipse_22)"
       id="g142">
      <circle
         id="Ellipse_22-2"
         data-name="Ellipse 22"
         cx="36.5"
         cy="36.5"
         r="36.5"
         transform="translate(763,16)"
         fill="#f1f0ec" />
    </g>
    <g
       id="browsing"
       transform="matrix(-1,0,0,1,1738.9897,502.806)">
      <g
         id="Group_16"
         data-name="Group 16"
         transform="translate(24.548,11.063)">
        <g
           id="Group_15"
           data-name="Group 15">
          <path
             id="Path_27"
             data-name="Path 27"
             d="m 273.879,139.978 a 9.309,9.309 0 1 0 -8.173,13.753 v 0 a 9.31,9.31 0 0 0 8.172,-13.753 z m -1.09,6.542 a 7.4,7.4 0 0 1 -7.082,5.3 v 0 a 7.4,7.4 0 1 1 7.082,-5.3 z"
             transform="translate(-256.393,-135.111)"
             fill="#cca54d" />
        </g>
      </g>
      <g
         id="Group_18"
         data-name="Group 18"
         transform="translate(34.789,14.273)">
        <g
           id="Group_17"
           data-name="Group 17">
          <path
             id="Path_28"
             data-name="Path 28"
             d="m 364.69,168.714 -0.045,-0.017 a 0.95893743,0.95893743 0 1 0 -0.662,1.8 l 0.04,0.015 a 0.9574594,0.9574594 0 1 0 0.667,-1.795 z"
             transform="translate(-363.356,-168.638)"
             fill="#cca54d" />
        </g>
      </g>
      <g
         id="Group_20"
         data-name="Group 20"
         transform="translate(37.132,15.938)">
        <g
           id="Group_19"
           data-name="Group 19">
          <path
             id="Path_29"
             data-name="Path 29"
             d="m 390.206,187.382 a 6.468,6.468 0 0 0 -0.681,-1.014 0.95742167,0.95742167 0 1 0 -1.48,1.215 4.55,4.55 0 0 1 0.479,0.713 4.487,4.487 0 0 1 0.347,3.493 0.95761749,0.95761749 0 1 0 1.83,0.565 6.388,6.388 0 0 0 -0.495,-4.972 z"
             transform="translate(-387.827,-186.019)"
             fill="#cca54d" />
        </g>
      </g>
      <g
         id="Group_22"
         data-name="Group 22">
        <g
           id="Group_21"
           data-name="Group 21">
          <path
             id="Path_30"
             data-name="Path 30"
             d="M 48.776,60.741 42.263,48.75 A 12.185,12.185 0 0 0 37,28.164 20.389,20.389 0 0 0 27.165,20.724 0.969,0.969 0 0 0 26.976,20.658 20.372,20.372 0 0 0 0.732,34.515 0.965,0.965 0 0 0 0.69,34.669 20.359,20.359 0 0 0 7.023,55.307 0.962,0.962 0 0 0 7.232,55.485 20.355,20.355 0 0 0 36.79,52 l 6.4,11.78 a 2.008,2.008 0 0 0 1.2,0.973 2.035,2.035 0 0 0 0.578,0.084 2.008,2.008 0 0 0 0.96,-0.245 l 2.033,-1.1 a 2.024,2.024 0 0 0 0.815,-2.751 z M 34.246,27.754 q -0.2,-0.006 -0.4,-0.007 A 12.182,12.182 0 0 0 26.21,49.413 l -2.756,2.161 -1.891,-0.808 -1.4,-5.848 a 0.958,0.958 0 0 0 -0.394,-0.57 l -2.554,-1.73 -1.7,-3.876 4.539,-7.717 a 0.958,0.958 0 0 0 0.132,-0.485 v -3.1 l 6.709,-4.78 a 18.469,18.469 0 0 1 7.351,5.094 z M 7.876,46.922 6.285,48.749 a 0.958,0.958 0 0 0 -0.226,0.76 l 0.342,2.47 A 18.444,18.444 0 0 1 2.06,37.615 l 2.928,5.354 a 0.958,0.958 0 0 0 0.386,0.384 l 2.586,1.391 z m 12.5,11.467 A 18.374,18.374 0 0 1 8.637,54.167 L 8.016,49.678 9.543,47.925 a 0.958,0.958 0 0 0 0.235,-0.592 l 0.12,-3.112 a 0.957,0.957 0 0 0 -0.5,-0.88 L 6.532,41.8 2.663,34.727 A 18.452,18.452 0 0 1 24.587,21.961 l -5.91,4.21 a 0.957,0.957 0 0 0 -0.4,0.78 v 3.33 l -4.657,7.913 a 0.957,0.957 0 0 0 -0.052,0.869 l 2,4.577 a 0.958,0.958 0 0 0 0.34,0.409 l 2.476,1.677 1.426,5.955 a 0.958,0.958 0 0 0 0.555,0.658 l 2.855,1.219 a 0.957,0.957 0 0 0 0.967,-0.127 l 3.684,-2.89 a 12.188,12.188 0 0 0 5.99,1.572 q 0.191,0 0.382,-0.006 a 18.456,18.456 0 0 1 -13.87,6.282 z M 33.865,50.2 A 10.268,10.268 0 1 1 36.2,29.936 l 0.052,0.012 a 10.271,10.271 0 0 1 4.206,17.844 L 40.42,47.824 A 10.323,10.323 0 0 1 33.865,50.2 Z M 47.05,61.8 45.017,62.9 A 0.11,0.11 0 0 1 44.872,62.857 L 38.526,51.179 a 12.2,12.2 0 0 0 1.143,-0.544 12.417,12.417 0 0 0 1.08,-0.66 l 6.344,11.681 A 0.11,0.11 0 0 1 47.05,61.8 Z"
             transform="translate(0,-19.557)"
             fill="#cca54d" />
        </g>
      </g>
      <g
         id="Group_24"
         data-name="Group 24"
         transform="translate(5.696,11.223)">
        <g
           id="Group_23"
           data-name="Group 23">
          <path
             id="Path_31"
             data-name="Path 31"
             d="m 60.928,136.891 a 0.957,0.957 0 0 0 -1.292,0.4 l -0.041,0.078 a 0.957,0.957 0 1 0 1.7,0.873 l 0.032,-0.062 a 0.958,0.958 0 0 0 -0.399,-1.289 z"
             transform="translate(-59.489,-136.781)"
             fill="#cca54d" />
        </g>
      </g>
      <g
         id="Group_26"
         data-name="Group 26"
         transform="translate(7.436,4.4)">
        <g
           id="Group_25"
           data-name="Group 25">
          <path
             id="Path_32"
             data-name="Path 32"
             d="m 85.573,66.137 a 0.957,0.957 0 0 0 -1.229,-0.568 15.309,15.309 0 0 0 -6.452,4.555 0.95739608,0.95739608 0 1 0 1.47,1.227 13.392,13.392 0 0 1 5.643,-3.985 0.958,0.958 0 0 0 0.568,-1.229 z"
             transform="translate(-77.669,-65.51)"
             fill="#cca54d" />
        </g>
      </g>
    </g>
    <text
       id="تصفح"
       transform="scale(-1,1)"
       fill="#6e6e6e"
       font-size="28px"
       font-family="SegoeUI, 'Segoe UI'"
       x="-1696.2059"
       y="597"><tspan
         x="-1764.0049"
         y="597"
         id="tspan163">Search</tspan></text>
    <text
       id="اختر"
       transform="scale(-1,1)"
       fill="#6e6e6e"
       font-size="28px"
       font-family="SegoeUI, 'Segoe UI'"
       x="-1557.5199"
       y="667"><tspan
         x="-1601.9398"
         y="667"
         id="tspan166">Choose</tspan></text>
    <text
       id="ادفع"
       transform="scale(-1,1)"
       fill="#6e6e6e"
       font-size="28px"
       font-family="SegoeUI, 'Segoe UI'"
       x="-1124.5079"
       y="665"><tspan
         x="-1175.9419"
         y="665"
         id="tspan169">Pay</tspan></text>
    <text
       id="وصل"
       transform="scale(-1,1)"
       fill="#6e6e6e"
       font-size="28px"
       font-family="SegoeUI, 'Segoe UI'"
       x="-965.79388"
       y="593"><tspan
         x="-1026.5789"
         y="593"
         id="tspan172">Deliver</tspan></text>
    <text
       id="غلف"
       transform="scale(-1,1)"
       fill="#6e6e6e"
       font-size="28px"
       font-family="SegoeUI, 'Segoe UI'"
       x="-1333.47"
       y="597"><tspan
         x="-1387.2549"
         y="597"
         id="tspan175">Wrap</tspan></text>
    <g
       id="Group_200"
       data-name="Group 200"
       transform="translate(1577.705,529.047)">
      <path
         id="Path_119"
         data-name="Path 119"
         d="m 3662.382,543.561 c 0,0 -25.62,-0.519 -48.263,9 -22.643,9.519 -42.312,29.067 -42.312,29.067"
         transform="translate(-3571.808,-543.556)"
         fill="none"
         stroke="#cca54d"
         stroke-linecap="round"
         stroke-width="2"
         stroke-dasharray="5" />
      <path
         id="Path_120"
         data-name="Path 120"
         d="m 3631.035,571.166 -0.792,6.561 h 7.014"
         transform="translate(-3629.089,-540.953)"
         fill="none"
         stroke="#cca54d"
         stroke-linecap="round"
         stroke-linejoin="round"
         stroke-width="2" />
    </g>
    <g
       id="Group_202"
       data-name="Group 202"
       transform="translate(1200.753,529.047)">
      <path
         id="Path_119-2"
         data-name="Path 119"
         d="m 3662.382,543.561 c 0,0 -25.62,-0.519 -48.263,9 -22.643,9.519 -42.312,29.067 -42.312,29.067"
         transform="translate(-3571.808,-543.556)"
         fill="none"
         stroke="#cca54d"
         stroke-linecap="round"
         stroke-width="2"
         stroke-dasharray="5" />
      <path
         id="Path_120-2"
         data-name="Path 120"
         d="m 3631.035,571.166 -0.792,6.561 h 7.014"
         transform="translate(-3629.089,-540.953)"
         fill="none"
         stroke="#cca54d"
         stroke-linecap="round"
         stroke-linejoin="round"
         stroke-width="2" />
    </g>
    <g
       id="Group_201"
       data-name="Group 201"
       transform="translate(1396.576,524.898)">
      <path
         id="Path_119-3"
         data-name="Path 119"
         d="m 3571.808,543.561 c 0,0 25.62,-0.519 48.264,9 22.644,9.519 42.311,29.067 42.311,29.067"
         transform="translate(-3568.937,-539.407)"
         fill="none"
         stroke="#cca54d"
         stroke-linecap="round"
         stroke-width="2"
         stroke-dasharray="5" />
      <path
         id="Path_120-3"
         data-name="Path 120"
         d="M 6.222,0 7.014,6.561 H 0"
         transform="matrix(-0.809,0.588,-0.588,-0.809,9.531,5.308)"
         fill="none"
         stroke="#cca54d"
         stroke-linecap="round"
         stroke-linejoin="round"
         stroke-width="2" />
    </g>
    <g
       id="Group_203"
       data-name="Group 203"
       transform="translate(1013.947,524.898)">
      <path
         id="Path_119-4"
         data-name="Path 119"
         d="m 3571.808,543.561 c 0,0 25.62,-0.519 48.264,9 22.644,9.519 42.311,29.067 42.311,29.067"
         transform="translate(-3568.937,-539.407)"
         fill="none"
         stroke="#cca54d"
         stroke-linecap="round"
         stroke-width="2"
         stroke-dasharray="5" />
      <path
         id="Path_120-4"
         data-name="Path 120"
         d="M 6.222,0 7.014,6.561 H 0"
         transform="matrix(-0.809,0.588,-0.588,-0.809,9.531,5.308)"
         fill="none"
         stroke="#cca54d"
         stroke-linecap="round"
         stroke-linejoin="round"
         stroke-width="2" />
    </g>
    <g
       id="tap_2_"
       data-name="tap (2)"
       transform="matrix(-1,0,0,1,1549.114,570.018)">
      <g
         id="Ellipse_4"
         data-name="Ellipse 4"
         transform="translate(-0.541,-0.018)"
         fill="none"
         stroke="#cca54d"
         stroke-width="1">
        <circle
           cx="8.5"
           cy="8.5"
           r="8.5"
           stroke="none"
           id="circle190" />
        <circle
           cx="8.5"
           cy="8.5"
           r="8"
           fill="none"
           id="circle192" />
      </g>
      <path
         id="Path_33"
         data-name="Path 33"
         d="m 30.687,49.872 h -0.064 a 3.5,3.5 0 0 0 -2.359,0.9 3.679,3.679 0 0 0 -3.416,-2.493 3.544,3.544 0 0 0 -2.532,1.089 3.626,3.626 0 0 0 -3.234,-2.068 h -0.068 a 3.322,3.322 0 0 0 -2.083,0.694 V 39.2 A 3.773,3.773 0 0 0 13.266,35.348 3.765,3.765 0 0 0 9.61,39.2 L 9.593,56.64 8.606,55.44 A 4.978,4.978 0 0 0 5.089,53.59 4.9,4.9 0 0 0 1.42,54.89 L 0.56,55.6 a 0.763,0.763 0 0 0 -0.19,0.94 l 8.35,16.049 a 8.609,8.609 0 0 0 7.58,4.763 h 9.41 v -0.008 c 4.771,0 8.639,-4.14 8.644,-9.223 0,-2.274 -0.007,-3.97 -0.005,-5.343 0,-3.676 0,-5.032 -0.008,-9.082 a 3.747,3.747 0 0 0 -3.653,-3.824 z m 2.123,12.9 c 0,1.374 0,3.076 -0.006,5.35 0,4.243 -3.207,7.7 -7.14,7.7 H 16.3 a 7.088,7.088 0 0 1 -6.226,-3.941 l -8.065,-15.5 0.4,-0.332 0.029,-0.026 a 3.389,3.389 0 0 1 2.544,-0.914 3.464,3.464 0 0 1 2.444,1.294 l 2.337,2.843 a 0.763,0.763 0 0 0 1.353,-0.484 L 11.128,39.2 A 2.247,2.247 0 0 1 13.267,36.876 2.247,2.247 0 0 1 15.4,39.2 V 51 c 0,0.041 0,0.082 0,0.124 0,0.018 0,0.036 0,0.054 v 5.045 a 0.7635,0.7635 0 1 0 1.527,0 v -5.2 a 2.14,2.14 0 0 1 2.083,-2.2 h 0.068 a 2.228,2.228 0 0 1 2.143,2.3 v 4.617 a 0.7635,0.7635 0 0 0 1.527,0 v -3.622 a 2.11,2.11 0 1 1 4.2,0 v 3.417 a 0.7635,0.7635 0 0 0 1.527,0 v -1.85 A 2.218,2.218 0 0 1 30.624,51.4 h 0.064 a 2.215,2.215 0 0 1 2.12,2.3 c 0.009,4.047 0.007,5.4 0,9.075 z m 0,0"
         transform="translate(4.92,-26.82)"
         fill="#cca54d" />
      <path
         id="Path_35"
         data-name="Path 35"
         d="m -6.588,5.366 2.726,2.726 5.52,-5.518"
         transform="translate(11.364,3.837)"
         fill="none"
         stroke="#cca54d"
         stroke-linecap="round"
         stroke-linejoin="round"
         stroke-width="1" />
    </g>
    <g
       id="wrapping"
       transform="matrix(-1,0,0,1,1369.734,502.136)">
      <g
         id="Group_30"
         data-name="Group 30">
        <g
           id="Group_29"
           data-name="Group 29">
          <path
             id="Path_36"
             data-name="Path 36"
             d="M 6.892,0 A 6.892,6.892 0 1 0 13.784,6.892 6.9,6.9 0 0 0 6.892,0 Z m 0,12.252 a 5.36,5.36 0 1 1 5.36,-5.36 5.366,5.366 0 0 1 -5.36,5.36 z"
             fill="#cca54d" />
        </g>
      </g>
      <g
         id="Group_32"
         data-name="Group 32"
         transform="translate(0,7.658)">
        <g
           id="Group_31"
           data-name="Group 31">
          <path
             id="Path_37"
             data-name="Path 37"
             d="m 12.252,85.333 v 26.8 a 5.3605,5.3605 0 0 1 -10.721,0 H 0 a 6.892,6.892 0 1 0 13.784,0 v -26.8 z"
             transform="translate(0,-85.333)"
             fill="#cca54d" />
        </g>
      </g>
      <g
         id="Group_34"
         data-name="Group 34"
         transform="translate(0,6.892)">
        <g
           id="Group_33"
           data-name="Group 33">
          <rect
             id="Rectangle_7"
             data-name="Rectangle 7"
             width="1.5319999"
             height="27.566999"
             fill="#cca54d"
             x="0"
             y="0" />
        </g>
      </g>
      <g
         id="Group_36"
         data-name="Group 36"
         transform="translate(3.829,3.829)">
        <g
           id="Group_35"
           data-name="Group 35">
          <path
             id="Path_38"
             data-name="Path 38"
             d="m 45.73,42.667 a 3.063,3.063 0 1 0 3.063,3.063 3.066,3.066 0 0 0 -3.063,-3.063 z m 0,4.595 a 1.532,1.532 0 1 1 1.532,-1.532 1.533,1.533 0 0 1 -1.532,1.532 z"
             transform="translate(-42.667,-42.667)"
             fill="#cca54d" />
        </g>
      </g>
      <g
         id="Group_38"
         data-name="Group 38"
         transform="translate(13.018,33.693)">
        <g
           id="Group_37"
           data-name="Group 37">
          <rect
             id="Rectangle_8"
             data-name="Rectangle 8"
             width="9.1890001"
             height="1.5319999"
             fill="#cca54d"
             x="0"
             y="0" />
        </g>
      </g>
      <g
         id="Group_40"
         data-name="Group 40"
         transform="translate(6.892)">
        <g
           id="Group_39"
           data-name="Group 39">
          <path
             id="Path_39"
             data-name="Path 39"
             d="M 115.629,7.882 107.972,0.224 A 0.763,0.763 0 0 0 107.43,0 H 76.8 v 1.532 h 30.313 l 7.209,7.209 v 24.952 h -4.595 v 1.532 h 5.36 a 0.765,0.765 0 0 0 0.766,-0.766 V 8.423 a 0.764,0.764 0 0 0 -0.224,-0.541 z"
             transform="translate(-76.8)"
             fill="#cca54d" />
        </g>
      </g>
      <g
         id="Group_42"
         data-name="Group 42"
         transform="translate(20.676,30.63)">
        <g
           id="Group_41"
           data-name="Group 41">
          <path
             id="Path_40"
             data-name="Path 40"
             d="m 249.544,341.333 h -18.378 a 0.766,0.766 0 0 0 -0.766,0.766 v 13.784 a 0.765,0.765 0 0 0 0.766,0.766 h 18.378 a 0.765,0.765 0 0 0 0.766,-0.766 V 342.1 a 0.765,0.765 0 0 0 -0.766,-0.767 z m -0.766,13.784 h -16.846 v -12.252 h 16.847 z"
             transform="translate(-230.4,-341.333)"
             fill="#cca54d" />
        </g>
      </g>
      <g
         id="Group_44"
         data-name="Group 44"
         transform="translate(18.378,26.036)">
        <g
           id="Group_43"
           data-name="Group 43">
          <path
             id="Path_41"
             data-name="Path 41"
             d="m 228.539,290.133 h -22.973 a 0.766,0.766 0 0 0 -0.766,0.766 v 4.595 a 0.766,0.766 0 0 0 0.766,0.766 h 22.973 a 0.765,0.765 0 0 0 0.766,-0.766 V 290.9 a 0.765,0.765 0 0 0 -0.766,-0.767 z m -0.766,4.595 h -21.441 v -3.063 h 21.441 z"
             transform="translate(-204.8,-290.133)"
             fill="#cca54d" />
        </g>
      </g>
      <g
         id="Group_46"
         data-name="Group 46"
         transform="translate(20.675,20.676)">
        <g
           id="Group_45"
           data-name="Group 45">
          <path
             id="Path_42"
             data-name="Path 42"
             d="m 240.9,235.985 -4.6,-4.6 a 3.469,3.469 0 0 0 -2.4,-0.985 h -0.047 a 3.446,3.446 0 0 0 0,6.892 h 6.509 a 0.766,0.766 0 0 0 0.542,-1.307 z m -7.051,-0.224 a 1.915,1.915 0 1 1 0.039,-3.829 1.9,1.9 0 0 1 1.334,0.541 l 3.287,3.287 h -4.661 z"
             transform="translate(-230.399,-230.4)"
             fill="#cca54d" />
        </g>
      </g>
      <g
         id="Group_48"
         data-name="Group 48"
         transform="translate(24.504,26.311)">
        <g
           id="Group_47"
           data-name="Group 47">
          <path
             id="Path_43"
             data-name="Path 43"
             d="m 278.6,293.2 -3.829,4.595 a 0.771,0.771 0 0 0 -0.177,0.491 v 8.423 a 1.533,1.533 0 0 1 -1.532,1.532 v 1.532 a 3.066,3.066 0 0 0 3.063,-3.063 v -8.15 l 3.651,-4.382 z"
             transform="translate(-273.066,-293.197)"
             fill="#cca54d" />
        </g>
      </g>
      <g
         id="Group_50"
         data-name="Group 50"
         transform="translate(29.864,20.675)">
        <g
           id="Group_49"
           data-name="Group 49">
          <path
             id="Path_44"
             data-name="Path 44"
             d="m 340.084,230.4 a 3.5,3.5 0 0 0 -2.467,0.99 l -4.595,4.595 a 0.766,0.766 0 0 0 0.541,1.307 h 6.509 a 3.4460044,3.4460044 0 0 0 0.011,-6.892 z m -0.011,5.36 h -4.66 l 3.282,-3.282 a 1.852,1.852 0 0 1 1.378,-0.547 1.9145,1.9145 0 0 1 0,3.829 z"
             transform="translate(-332.798,-230.399)"
             fill="#cca54d" />
        </g>
      </g>
      <g
         id="Group_52"
         data-name="Group 52"
         transform="translate(36.756,0.766)">
        <g
           id="Group_51"
           data-name="Group 51">
          <path
             id="Path_45"
             data-name="Path 45"
             d="M 411.132,15.425 V 8.533 H 409.6 v 7.658 a 0.766,0.766 0 0 0 0.766,0.766 h 7.658 v -1.532 z"
             transform="translate(-409.6,-8.533)"
             fill="#cca54d" />
        </g>
      </g>
      <g
         id="Group_54"
         data-name="Group 54"
         transform="translate(29.865,26.802)">
        <g
           id="Group_53"
           data-name="Group 53">
          <rect
             id="Rectangle_9"
             data-name="Rectangle 9"
             width="1.5319999"
             height="18.378"
             fill="#cca54d"
             x="0"
             y="0" />
        </g>
      </g>
      <g
         id="Group_56"
         data-name="Group 56"
         transform="translate(30.041,26.311)">
        <g
           id="Group_55"
           data-name="Group 55">
          <path
             id="Path_46"
             data-name="Path 46"
             d="m 341.485,308.236 a 1.533,1.533 0 0 1 -1.532,-1.532 v -8.423 a 0.767,0.767 0 0 0 -0.178,-0.491 l -3.829,-4.595 -1.177,0.981 3.652,4.382 v 8.142 a 3.066,3.066 0 0 0 3.063,3.063 h 0.766 v -1.531 z"
             transform="translate(-334.77,-293.196)"
             fill="#cca54d" />
        </g>
      </g>
    </g>
    <path
       id="wallet"
       d="m 1142.284,600.23 h 1.143 v -6.084 a -4.125,4.125 0 0 1 4.12,-4.12 h 1.382 l -4.028,-7.629 a -3.361,3.361 0 0 1 1.414,-4.545 l 15.485,-8.14 a -3.376,3.376 0 0 1 4.549,1.408 l 9.982,18.905 h 2.484 a -4.125,4.125 0 0 1 4.12,4.12 v 22.3 a -4.125,4.125 0 0 1 -4.12,4.117 h -31.27 a -4.125,4.125 0 0 1 -4.12,-4.12 v -6.085 h -1.143 a -1,1 0 0 1 -1,-1 v -8.126 a -1,1 0 0 1 1.002,-1.001 z m 22.295,-28.176 a -1.371,1.371 0 0 0 -1.848,-0.571 l -15.488,8.142 a -1.359,1.359 0 0 0 -0.572,1.838 l 4.521,8.562 h 2.686 l -2.553,-4.836 a -1,1 0 0 1 0.419,-1.353 -2.76,2.76 0 0 0 1.16,-3.733 -1,1 0 0 1 0.419,-1.353 l 5.252,-2.76 a -1,1 0 0 1 1.351,0.419 -2.78,2.78 0 0 0 3.747,1.158 -1,1 0 0 1 1.351,0.419 l 6.357,12.039 h 2.687 z m -9.564,10.745 a -4.733,4.733 0 0 1 -1.5,2.249 l 2.627,4.977 h 12.973 l -5.447,-10.316 a -4.8,4.8 0 0 1 -4.953,-1.532 l -3.667,1.927 a -4.725,4.725 0 0 1 -0.033,2.695 z m -9.583,33.642 a -2.121,2.121 0 0 0 2.119,2.119 h 31.264 a -2.121,2.121 0 0 0 2.119,-2.119 v -22.3 a -2.121,2.121 0 0 0 -2.119,-2.116 h -31.27 a -2.121,2.121 0 0 0 -2.119,2.119 v 6.085 h 3.91 a -5.0635,5.0635 0 0 1 0,10.127 h -3.907 z m -2.144,-8.086 h 6.048 a -3.062,3.062 0 1 0 0,-6.124 h -6.051 z"
       fill="#cca54d" />
    <g
       id="truck"
       transform="translate(940.374,503.012)">
      <g
         id="Group_58"
         data-name="Group 58"
         transform="translate(33.894,26.268)">
        <g
           id="Group_57"
           data-name="Group 57">
          <path
             id="Path_47"
             data-name="Path 47"
             d="m 73.351,337.067 a 5.084,5.084 0 1 1 -5.084,5.084 5.089,5.089 0 0 1 5.084,-5.084 z m 0,8.474 a 3.389,3.389 0 1 0 -3.389,-3.389 3.393,3.393 0 0 0 3.389,3.389 z"
             transform="translate(-68.267,-337.067)"
             fill="#cca54d" />
        </g>
      </g>
      <g
         id="Group_60"
         data-name="Group 60"
         transform="translate(5.084,26.268)">
        <g
           id="Group_59"
           data-name="Group 59">
          <path
             id="Path_48"
             data-name="Path 48"
             d="m 363.484,337.067 a 5.084,5.084 0 1 1 -5.084,5.084 5.089,5.089 0 0 1 5.084,-5.084 z m 0,8.474 a 3.389,3.389 0 1 0 -3.389,-3.389 3.393,3.393 0 0 0 3.389,3.389 z"
             transform="translate(-358.4,-337.067)"
             fill="#cca54d" />
        </g>
      </g>
      <g
         id="Group_62"
         data-name="Group 62"
         transform="translate(0,9.321)">
        <g
           id="Group_61"
           data-name="Group 61">
          <path
             id="Path_49"
             data-name="Path 49"
             d="m 324.4,178.652 7.626,-11.863 a 0.848,0.848 0 0 1 0.713,-0.389 h 9.321 a 0.847,0.847 0 0 1 0.847,0.847 v 21.184 a 0.846,0.846 0 0 1 -0.847,0.847 h -3.389 v -1.695 h 2.542 V 168.095 H 333.2 l -7.242,11.265 v 8.225 h 4.242 v 1.695 h -5.084 a 0.847,0.847 0 0 1 -0.847,-0.847 v -9.321 a 0.845,0.845 0 0 1 0.131,-0.46 z"
             transform="translate(-324.267,-166.4)"
             fill="#cca54d" />
        </g>
      </g>
      <g
         id="Group_64"
         data-name="Group 64"
         transform="translate(1.695,12.711)">
        <g
           id="Group_63"
           data-name="Group 63">
          <path
             id="Path_50"
             data-name="Path 50"
             d="m 370.264,208.159 v -5.932 h -6.779 v -1.695 h 7.626 a 0.847,0.847 0 0 1 0.847,0.847 v 7.626 a 0.846,0.846 0 0 1 -0.847,0.847 H 358.4 v -1.695 h 11.863 z"
             transform="translate(-358.401,-200.533)"
             fill="#cca54d" />
        </g>
      </g>
      <g
         id="Group_66"
         data-name="Group 66"
         transform="translate(16.947,3.39)">
        <g
           id="Group_65"
           data-name="Group 65">
          <path
             id="Path_51"
             data-name="Path 51"
             d="m 0.847,106.667 h 32.2 a 0.848,0.848 0 0 1 0.847,0.847 v 27.116 a 0.847,0.847 0 0 1 -0.847,0.847 h -6.779 v -1.695 H 32.2 v -25.42 H 1.695 v 25.421 h 16.1 v 1.695 H 0.847 A 0.847,0.847 0 0 1 0,134.63 v -27.116 a 0.847,0.847 0 0 1 0.847,-0.847 z"
             transform="translate(0,-106.667)"
             fill="#cca54d" />
        </g>
      </g>
      <g
         id="Group_68"
         data-name="Group 68"
         transform="translate(44.91,27.116)">
        <g
           id="Group_67"
           data-name="Group 67">
          <rect
             id="Rectangle_10"
             data-name="Rectangle 10"
             width="5.0840001"
             height="1.6950001"
             fill="#cca54d"
             x="0"
             y="0" />
        </g>
      </g>
      <g
         id="Group_70"
         data-name="Group 70"
         transform="translate(18.642,27.116)">
        <g
           id="Group_69"
           data-name="Group 69">
          <rect
             id="Rectangle_11"
             data-name="Rectangle 11"
             width="14.405"
             height="1.6950001"
             fill="#cca54d"
             x="0"
             y="0" />
        </g>
      </g>
      <g
         id="Group_72"
         data-name="Group 72"
         transform="translate(0.847,27.116)">
        <g
           id="Group_71"
           data-name="Group 71">
          <rect
             id="Rectangle_12"
             data-name="Rectangle 12"
             width="3.3889999"
             height="1.6950001"
             fill="#cca54d"
             x="0"
             y="0" />
        </g>
      </g>
      <g
         id="Group_74"
         data-name="Group 74"
         transform="translate(17.795,6.779)">
        <g
           id="Group_73"
           data-name="Group 73">
          <rect
             id="Rectangle_13"
             data-name="Rectangle 13"
             width="29.658001"
             height="1.6950001"
             fill="#cca54d"
             x="0"
             y="0" />
        </g>
      </g>
      <g
         id="Group_76"
         data-name="Group 76"
         transform="translate(38.131,30.505)">
        <g
           id="Group_75"
           data-name="Group 75">
          <rect
             id="Rectangle_14"
             data-name="Rectangle 14"
             width="1.6950001"
             height="1.6950001"
             fill="#cca54d"
             x="0"
             y="0" />
        </g>
      </g>
      <g
         id="Group_78"
         data-name="Group 78"
         transform="translate(9.321,30.505)">
        <g
           id="Group_77"
           data-name="Group 77">
          <rect
             id="Rectangle_15"
             data-name="Rectangle 15"
             width="1.6950001"
             height="1.6950001"
             fill="#cca54d"
             x="0"
             y="0" />
        </g>
      </g>
      <g
         id="Group_80"
         data-name="Group 80"
         transform="translate(35.589)">
        <g
           id="Group_79"
           data-name="Group 79">
          <rect
             id="Rectangle_16"
             data-name="Rectangle 16"
             width="11.863"
             height="1.6950001"
             fill="#cca54d"
             x="0"
             y="0" />
        </g>
      </g>
      <g
         id="Group_82"
         data-name="Group 82"
         transform="translate(49.147)">
        <g
           id="Group_81"
           data-name="Group 81">
          <rect
             id="Rectangle_17"
             data-name="Rectangle 17"
             width="1.6950001"
             height="1.6950001"
             fill="#cca54d"
             x="0"
             y="0" />
        </g>
      </g>
    </g>
  </g>
</svg>
